<svg xmlns="http://www.w3.org/2000/svg" version="1.1" xmlns:xlink="http://www.w3.org/1999/xlink" xmlns:svgjs="http://svgjs.dev/svgjs" width="1000" height="118" viewBox="0 0 1000 118"><g transform="matrix(1,0,0,1,-0.6060443414990573,-0.20388115775056548)"><svg viewBox="0 0 396 47" data-background-color="#010536" preserveAspectRatio="xMidYMid meet" height="118" width="1000" xmlns="http://www.w3.org/2000/svg" xmlns:xlink="http://www.w3.org/1999/xlink"><g id="tight-bounds" transform="matrix(1,0,0,1,0.2399935689124959,0.08120690181590362)"><svg viewBox="0 0 395.52 46.837586196368214" height="46.837586196368214" width="395.52"><g><svg viewBox="0 0 395.52 46.837586196368214" height="46.837586196368214" width="395.52"><g><svg viewBox="0 0 395.52 46.837586196368214" height="46.837586196368214" width="395.52"><g id="textblocktransform"><svg viewBox="0 0 395.52 46.837586196368214" height="46.837586196368214" width="395.52" id="textblock"><g><svg viewBox="0 0 395.52 31.10387204265245" height="31.10387204265245" width="395.52"><g transform="matrix(1,0,0,1,0,0)"><svg width="395.52" viewBox="2 -35.20000076293945 450.1099853515625 35.400001525878906" height="31.10387204265245" data-palette-color="#fbfbf8"><path d="M17.65-32.3L17.65-32.3Q12-32.3 8.7-28.1 5.4-23.9 5.4-16L5.4-16Q5.4-12.6 6.1-10.05 6.8-7.5 7.83-6.1 8.85-4.7 10.35-3.9L10.35-3.9Q12.75-2.55 15.95-2.55L15.95-2.55Q20.9-2.55 25.85-3.65L25.85-3.65 26.45-1.05Q25.6-0.75 21.93-0.28 18.25 0.2 15.95 0.2 13.65 0.2 11.95-0.13 10.25-0.45 8.35-1.5 6.45-2.55 5.13-4.28 3.8-6 2.9-9 2-12 2-16L2-16Q2-24.85 6.05-29.8L6.05-29.8Q10.3-35 17.65-35L17.65-35Q19.9-35 22.53-34.58 25.15-34.15 26.25-33.75L26.25-33.75 26.85-26.55 24.4-26.2 23.7-31.6Q20.5-32.3 17.65-32.3ZM29.35-17.4L29.35-17.4Q29.35-25.55 33.57-30.38 37.8-35.2 44.1-35.2L44.1-35.2Q58.85-35.2 58.85-17.4L58.85-17.4Q58.85-9.3 54.65-4.55 50.45 0.2 44.1 0.2L44.1 0.2Q29.35 0.2 29.35-17.4ZM32.75-17.5L32.75-17.5Q32.75-2.8 44.1-2.8L44.1-2.8Q49-2.8 52.22-6.7 55.45-10.6 55.45-17.5L55.45-17.5Q55.45-32.2 44.1-32.2L44.1-32.2Q39.2-32.2 35.97-28.28 32.75-24.35 32.75-17.5ZM65.39-32.25L62.34-32.25 62.34-35 74.39-35Q81.14-35 85.22-31.08 89.3-27.15 89.3-18.3L89.3-18.3Q89.3-9.55 86.44-5.2L86.44-5.2Q83.94-1.4 78.64-0.4L78.64-0.4Q76.3 0 73.14 0L73.14 0 62.34 0 62.34-2.75 65.39-2.75 65.39-32.25ZM74.14-32.25L74.14-32.25 68.8-32.25 68.8-2.75 72.89-2.75Q79.55-2.75 82.05-5.2L82.05-5.2Q84.69-7.75 85.44-12.1L85.44-12.1Q85.89-14.65 85.89-18.05L85.89-18.05Q85.89-25.55 82.62-28.9 79.34-32.25 74.14-32.25ZM95.84-32.25L92.79-32.25 92.79-35 114.04-35 113.99-34.7 114.64-27.8 112.14-27.4 111.54-32.25 99.24-32.25 99.24-18.85 110.14-18.85 110.14-22 112.89-22 112.89-13.4 110.14-13.4 110.14-16.1 99.24-16.1 99.24-2.75 112.89-2.75 113.64-9 116.09-8.75 115.34 0 92.79 0 92.79-2.75 95.84-2.75 95.84-32.25ZM173.69 0L163.59 0 163.59-2.75 166.79-2.75 166.79-29.2 155.39-6.55 151.99-6.55 140.59-29.2 140.59-2.75 144.69-2.75 144.69 0 134.59 0 134.59-2.75 137.44-2.75 137.44-32.25 134.59-32.25 134.59-35 140.84-35 153.69-9.4 166.54-35 173.14-35 173.14-32.25 169.94-32.25 169.94-2.75 173.69-2.75 173.69 0ZM209.63 0L199.53 0 199.53-2.75 202.58-2.75 200.28-9.25 184.88-9.25 182.63-2.75 186.23-2.75 186.23 0 176.13 0 176.13-2.75 179.44-2.75 191.08-35 194.13-35 206.19-2.75 209.63-2.75 209.63 0ZM199.38-11.75L192.44-31.2 185.73-11.75 199.38-11.75ZM221.83-2.95L221.83-2.95Q227.38-2.95 230.08-5.75L230.08-5.75Q231.63-7.35 231.63-9.55 231.63-11.75 230.56-13.18 229.48-14.6 227.78-15.38 226.08-16.15 224.01-16.73 221.93-17.3 219.86-17.95 217.78-18.6 216.08-19.5 214.38-20.4 213.31-22.05 212.23-23.7 212.23-26L212.23-26Q212.23-30 215.23-32.55 218.23-35.1 223.18-35.1 228.13-35.1 232.48-34.1L232.48-34.1 232.48-34.05 232.63-34.05 233.18-27.8 230.73-27.4 230.18-31.6Q227.38-32.1 224.01-32.1 220.63-32.1 218.13-30.63 215.63-29.15 215.63-26.45 215.63-23.75 217.63-22.35 219.63-20.95 222.48-20.23 225.33-19.5 228.18-18.6 231.03-17.7 233.03-15.5 235.03-13.3 235.03-9.7L235.03-9.7Q235.03-4.85 231.43-2.4 227.83 0.05 222.48 0.05L222.48 0.05Q215.73 0.05 211.18-3L211.18-3 211.23-8.3 213.68-8.55 213.78-4.75Q217.58-2.95 221.83-2.95ZM253.33 0L243.28 0 243.28-2.75 246.53-2.75 246.53-32 239.18-32 238.63-27.4 236.18-27.8 236.78-35 259.58-35 260.23-27.8 257.73-27.4 257.13-32 249.68-32 249.68-2.75 253.33-2.75 253.33 0ZM266.28-32.25L263.23-32.25 263.23-35 284.48-35 284.43-34.7 285.08-27.8 282.58-27.4 281.98-32.25 269.68-32.25 269.68-18.85 280.58-18.85 280.58-22 283.33-22 283.33-13.4 280.58-13.4 280.58-16.1 269.68-16.1 269.68-2.75 283.33-2.75 284.08-9 286.53-8.75 285.78 0 263.23 0 263.23-2.75 266.28-2.75 266.28-32.25ZM292.83-32.25L289.78-32.25 289.78-35 301.83-35Q306.98-35 309.78-32.75 312.58-30.5 312.58-26.05L312.58-26.05Q312.58-23.1 310.5-19.93 308.43-16.75 306.43-15.6L306.43-15.6 314.33-2.75 317.88-2.75 317.88 0 312.38 0 303.48-14.35 296.23-14.35 296.23-2.75 299.88-2.75 299.88 0 289.78 0 289.78-2.75 292.83-2.75 292.83-32.25ZM301.58-32.25L301.58-32.25 296.23-32.25 296.23-17.1 304.48-17.1Q309.18-21.4 309.18-25.75L309.18-25.75Q309.18-28.95 307.23-30.6 305.28-32.25 301.58-32.25ZM320.97-32.25L317.57-32.25 317.57-35 327.67-35 327.67-32.25 324.52-32.25 333.92-14.6 342.87-32.25 339.82-32.25 339.82-35 349.62-35 349.62-32.25 346.27-32.25 335.52-11.8 335.52-2.75 339.12-2.75 339.12 0 329.12 0 329.12-2.75 332.37-2.75 332.37-11.8 320.97-32.25ZM371.22-32.25L368.12-32.25 368.12-35 378.22-35 378.22-32.25 374.62-32.25 374.62-2.75 387.32-2.75 388.07-9 390.52-8.75 389.97-2.75 390.02-2.75 389.97-2.65 389.77 0 389.27-0.05 389.27 0 368.12 0 368.12-2.75 371.22-2.75 371.22-32.25ZM425.72 0L415.62 0 415.62-2.75 418.67-2.75 416.37-9.25 400.97-9.25 398.72-2.75 402.32-2.75 402.32 0 392.22 0 392.22-2.75 395.52-2.75 407.17-35 410.22-35 422.27-2.75 425.72-2.75 425.72 0ZM415.47-11.75L408.52-31.2 401.82-11.75 415.47-11.75ZM431.76-32.25L428.51-32.25 428.51-35 439.26-35Q450.06-35 450.06-26.55L450.06-26.55Q450.06-23 447.36-18.9L447.36-18.9Q452.11-16.95 452.11-10.35L452.11-10.35Q452.11-4.45 449.14-2.23 446.16 0 440.01 0L440.01 0 428.51 0 428.51-2.75 431.76-2.75 431.76-32.25ZM441.01-17.15L441.01-17.15 435.16-17.15 435.16-2.75 439.76-2.75Q442.06-2.75 443.51-3 444.96-3.25 446.26-4L446.26-4Q448.71-5.35 448.71-10.15L448.71-10.15Q448.71-13.95 446.79-15.55 444.86-17.15 441.01-17.15ZM435.16-19.9L441.26-19.9Q443.11-19.9 444.46-19.7L444.46-19.7Q446.66-23.15 446.66-26.25L446.66-26.25Q446.66-32.25 439.01-32.25L439.01-32.25 435.16-32.25 435.16-19.9Z" opacity="1" transform="matrix(1,0,0,1,0,0)" fill="#fbfbf8" class="wordmark-text-0" data-fill-palette-color="primary" id="text-0"></path></svg></g></svg></g><g transform="matrix(1,0,0,1,0,38.446749738993674)"><svg viewBox="0 0 232.209792 8.390836457374542" height="8.390836457374542" width="232.209792"><g transform="matrix(1,0,0,1,0,0)"><svg width="232.209792" viewBox="2.440000057220459 -34.52000045776367 1372.800048828125 49.61000061035156" height="8.390836457374542" data-palette-color="#fbfbf8"><path d="M9.01-12.52L9.01-26.49 2.44-26.49 2.44-30.4 21.12-30.4 21.12-26.49 14.5-26.49 14.5-12.52Q14.5-10.28 15.32-8.56 16.14-6.84 17.57-5.66 18.99-4.49 20.92-3.89 22.85-3.3 25.07-3.3L25.07-3.3Q27.29-3.3 28.98-3.69 30.66-4.08 31.87-4.74 33.08-5.4 33.83-6.27 34.57-7.15 34.94-8.13L34.94-8.13Q35.16-8.89 35.29-9.53 35.42-10.18 35.51-10.95 35.6-11.72 35.62-12.74 35.64-13.77 35.64-15.31L35.64-15.31 35.64-26.49 29.05-26.49 29.05-30.4 47.73-30.4 47.73-26.49 41.14-26.49 41.14-14.89Q41.14-12.67 41.04-11.15 40.94-9.62 40.75-8.81L40.75-8.81Q40.14-6.49 38.7-4.72 37.26-2.95 35.19-1.77 33.13-0.59 30.54 0.01 27.95 0.61 25.07 0.61L25.07 0.61Q21.24 0.61 18.25-0.33 15.26-1.27 13.21-2.99 11.16-4.71 10.08-7.13 9.01-9.55 9.01-12.52L9.01-12.52ZM13.82-0.66L13.82-0.66Q16.48 0.73 19.2 1.53 21.92 2.32 25.07 2.32L25.07 2.32Q27.47 2.32 29.72 1.89 31.98 1.46 33.96 0.63 35.94-0.2 37.59-1.45 39.23-2.71 40.41-4.36 41.58-6.01 42.24-8.06 42.9-10.11 42.9-12.55L42.9-12.55 42.9-24.78 49.73-24.78 49.73-29.15 50.71-29.15 50.71-23.85 43.87-23.85 43.87-12.52Q43.87-8.81 42.42-5.9 40.97-2.98 38.43-0.94 35.89 1.1 32.46 2.17 29.03 3.25 25.07 3.25L25.07 3.25Q23.34 3.25 21.69 2.98 20.04 2.71 18.58 2.21 17.11 1.71 15.89 0.99 14.67 0.27 13.82-0.66ZM16.26-12.52L16.26-24.78 22.88-24.78 22.88-29.15 23.85-29.15 23.85-23.85 17.24-23.85 17.24-12.52Q17.24-11.08 17.65-9.81 18.07-8.54 18.96-7.54 19.85-6.54 21.24-5.86 22.63-5.18 24.61-4.93L24.61-4.93Q22.46-4.93 20.89-5.49 19.31-6.05 18.29-7.06 17.26-8.06 16.76-9.45 16.26-10.84 16.26-12.52L16.26-12.52ZM30.52-23.85L30.52-24.78 34.62-24.78 34.62-23.85 30.52-23.85ZM3.91-23.85L3.91-24.78 8.01-24.78 8.01-23.85 3.91-23.85ZM55.69 0L55.69-3.66 61.06-3.66 61.06-19.41 55.69-19.41 55.69-23.56 66.31-23.56 66.31-19.87Q67.06-20.8 68.12-21.61 69.19-22.41 70.51-23.01 71.82-23.61 73.36-23.95 74.9-24.29 76.58-24.29L76.58-24.29Q79.12-24.29 81.2-23.57 83.27-22.85 84.74-21.35 86.2-19.85 87-17.57 87.79-15.28 87.79-12.16L87.79-12.16 87.79-3.66 93.16-3.66 93.16 0 78.39 0 78.39-3.66 82.54-3.66 82.54-10.08Q82.54-12.06 82.36-13.61 82.18-15.16 81.83-16.04L81.83-16.04Q81.39-17.16 80.72-17.94 80.05-18.73 79.21-19.21 78.37-19.7 77.37-19.92 76.36-20.14 75.24-20.14L75.24-20.14Q74.05-20.14 72.76-19.7 71.48-19.26 70.27-18.47 69.06-17.68 68.03-16.6 66.99-15.53 66.31-14.28L66.31-14.28 66.31-3.66 70.46-3.66 70.46 0 55.69 0ZM89.55-5.13L89.55-11.99Q89.55-14.14 89.22-15.98 88.89-17.82 88.23-19.3 87.57-20.78 86.61-21.85 85.64-22.92 84.37-23.56L84.37-23.56Q86.03-23.14 87.2-22.16 88.38-21.17 89.11-19.65 89.84-18.14 90.18-16.16 90.52-14.18 90.52-11.82L90.52-11.82 90.52-5.13 89.55-5.13ZM68.06-5.13L68.06-13.67Q68.67-14.75 69.52-15.63 70.36-16.5 71.35-17.13 72.34-17.75 73.42-18.09 74.51-18.43 75.58-18.43L75.58-18.43Q77.27-18.43 78.32-17.8 79.37-17.16 79.86-16.19L79.86-16.19Q79.1-16.75 78.09-17.14 77.07-17.53 75.53-17.53L75.53-17.53Q74.58-17.53 73.61-17.18 72.63-16.82 71.75-16.24 70.87-15.65 70.16-14.89 69.46-14.14 69.04-13.35L69.04-13.35 69.04-5.13 68.06-5.13ZM57.15-16.77L57.15-17.7 60.03-17.7 60.03-16.77 57.15-16.77ZM79.86 1.71L94.92 1.71 94.92-2.29 95.9-2.29 95.9 2.64 79.86 2.64 79.86 1.71ZM57.15 1.71L72.21 1.71 72.21-2.29 73.19-2.29 73.19 2.64 57.15 2.64 57.15 1.71ZM99.75 0L99.75-3.66 105.12-3.66 105.12-30.4 99.75-30.4 99.75-34.06 110.37-34.06 110.37-3.66 115.74-3.66 115.74 0 99.75 0ZM112.08-5.13L112.08-32.81 113.06-32.81 113.06-5.13 112.08-5.13ZM101.22-27.76L101.22-28.69 104.1-28.69 104.1-27.76 101.22-27.76ZM101.22 1.71L117.5 1.71 117.5-2.29 118.48-2.29 118.48 2.64 101.22 2.64 101.22 1.71ZM122.99-11.4L122.99-11.4Q122.99-14.06 124.14-16.42 125.29-18.77 127.35-20.52 129.41-22.27 132.29-23.28 135.17-24.29 138.62-24.29L138.62-24.29Q142.23-24.29 145.07-23.33 147.92-22.36 149.88-20.65 151.85-18.95 152.89-16.6 153.92-14.26 153.92-11.5L153.92-11.5Q153.92-8.84 152.79-6.59 151.65-4.35 149.57-2.72 147.48-1.1 144.56-0.18 141.64 0.73 138.05 0.73L138.05 0.73Q134.66 0.73 131.89-0.28 129.12-1.29 127.14-2.98 125.16-4.66 124.08-6.85 122.99-9.03 122.99-11.4ZM126.82-1.12L126.82-1.12Q129.19 0.59 132.06 1.51 134.93 2.44 138.54 2.44L138.54 2.44Q141.91 2.44 145.01 1.53 148.11 0.61 150.48-1.17 152.85-2.95 154.26-5.55 155.68-8.15 155.68-11.5L155.68-11.5Q155.68-13.13 155.23-14.81 154.78-16.48 153.96-18.02 153.14-19.56 151.97-20.89 150.8-22.22 149.36-23.14L149.36-23.14Q150.99-22.41 152.35-21.22 153.7-20.02 154.66-18.49 155.61-16.97 156.13-15.19 156.66-13.4 156.66-11.5L156.66-11.5Q156.66-9.11 155.97-7.07 155.29-5.03 154.08-3.38 152.87-1.73 151.2-0.46 149.53 0.81 147.53 1.65 145.52 2.49 143.27 2.93 141.01 3.37 138.66 3.37L138.66 3.37Q136.71 3.37 134.93 3.06 133.15 2.76 131.62 2.19 130.1 1.61 128.87 0.78 127.65-0.05 126.82-1.12ZM128.41-11.5L128.41-11.5Q128.41-9.62 129.13-8.07 129.85-6.52 131.17-5.41 132.49-4.3 134.33-3.69 136.17-3.08 138.42-3.08L138.42-3.08Q140.69-3.08 142.55-3.7 144.4-4.32 145.74-5.43 147.09-6.54 147.82-8.09 148.55-9.64 148.55-11.5L148.55-11.5Q148.55-13.33 147.82-14.95 147.09-16.58 145.77-17.81 144.45-19.04 142.61-19.76 140.76-20.48 138.54-20.48L138.54-20.48Q136.22-20.48 134.36-19.79 132.49-19.09 131.17-17.88 129.85-16.67 129.13-15.04 128.41-13.4 128.41-11.5ZM130.12-11.4L130.12-11.4Q130.12-12.94 130.73-14.29 131.34-15.65 132.45-16.64 133.56-17.63 135.11-18.2 136.66-18.77 138.54-18.77L138.54-18.77Q139.74-18.77 140.86-18.52 141.98-18.26 142.94-17.77 143.89-17.29 144.62-16.59 145.35-15.89 145.79-15.01L145.79-15.01Q144.18-16.48 142.44-17.16 140.69-17.85 138.49-17.85L138.49-17.85Q136.91-17.85 135.56-17.33 134.22-16.82 133.22-15.94 132.22-15.06 131.66-13.89 131.1-12.72 131.1-11.4L131.1-11.4Q131.1-10.3 131.36-9.35 131.63-8.4 132.28-7.58 132.93-6.76 134-6.1 135.08-5.44 136.69-4.93L136.69-4.93Q135.22-5.03 134.01-5.55 132.81-6.08 131.94-6.93 131.07-7.79 130.6-8.94 130.12-10.08 130.12-11.4ZM162.27-11.33L162.27-11.33Q162.27-13.92 163.38-16.26 164.49-18.6 166.51-20.39 168.52-22.17 171.36-23.23 174.21-24.29 177.65-24.29L177.65-24.29Q180.53-24.29 182.86-23.52 185.2-22.75 187.17-21.36L187.17-21.36 187.17-23.54 192.42-23.54 192.42-15.97 187.42-15.97Q186.73-16.82 185.73-17.64 184.73-18.46 183.47-19.09 182.22-19.73 180.73-20.12 179.24-20.51 177.58-20.51L177.58-20.51Q175.45-20.51 173.62-19.82 171.79-19.14 170.45-17.92 169.11-16.7 168.34-15.04 167.57-13.38 167.57-11.43L167.57-11.43Q167.57-9.4 168.39-7.84 169.2-6.27 170.64-5.21 172.08-4.15 174.06-3.6 176.04-3.05 178.36-3.05L178.36-3.05Q182.12-3.05 185.01-4.25 187.91-5.44 190.18-7.93L190.18-7.93 192.76-4.98Q190.1-2.12 186.59-0.7 183.07 0.73 178.48 0.73L178.48 0.73Q174.62 0.73 171.61-0.13 168.59-1 166.52-2.59 164.44-4.17 163.36-6.4 162.27-8.62 162.27-11.33ZM188.61-13.33L188.61-14.26 194.18-14.26 194.18-22.51 195.16-22.51 195.16-13.33 188.61-13.33ZM169.33-11.43L169.33-11.43Q169.33-13.06 169.96-14.42 170.6-15.77 171.71-16.75 172.82-17.72 174.33-18.26 175.84-18.8 177.6-18.8L177.6-18.8Q178.65-18.8 179.73-18.6 180.8-18.41 181.75-18.05 182.7-17.7 183.46-17.21 184.22-16.72 184.66-16.14L184.66-16.14Q183.19-16.92 181.52-17.4 179.85-17.87 177.7-17.87L177.7-17.87Q175.99-17.87 174.62-17.35 173.26-16.82 172.29-15.94 171.33-15.06 170.82-13.89 170.3-12.72 170.3-11.43L170.3-11.43Q170.3-10.13 170.71-9.14 171.11-8.15 171.87-7.36 172.62-6.57 173.72-5.97 174.82-5.37 176.21-4.88L176.21-4.88Q174.6-5.03 173.32-5.57 172.04-6.1 171.16-6.95 170.28-7.79 169.8-8.92 169.33-10.06 169.33-11.43ZM165.76-1.12L165.76-1.12Q166.93-0.27 168.37 0.4 169.81 1.07 171.46 1.53 173.11 1.98 174.89 2.22 176.67 2.47 178.51 2.47L178.51 2.47Q180.7 2.47 182.81 2.11 184.93 1.76 186.78 1.1 188.64 0.44 190.18-0.5 191.71-1.44 192.79-2.61L192.79-2.61 193.5-1.98Q190.83 0.73 187.04 2.06 183.24 3.39 178.46 3.39L178.46 3.39Q176.48 3.39 174.53 3.1 172.57 2.81 170.86 2.23 169.16 1.66 167.82 0.82 166.49-0.02 165.76-1.12ZM201.48 0L201.48-3.66 206.85-3.66 206.85-30.4 201.48-30.4 201.48-34.06 212.1-34.06 212.1-11.55 224.62-19.41 220.67-19.41 220.67-23.56 236.68-23.56 236.68-19.41 230.6-19.41 221.55-13.84 231.95-3.66 237.24-3.66 237.24 0 222.08 0 222.08-3.66 225.28-3.66 217.44-11.33 212.1-8.03 212.1-3.66 216.25-3.66 216.25 0 201.48 0ZM213.81-14.16L213.81-32.81 214.78-32.81 214.78-14.75 213.81-14.16ZM202.94-27.76L202.94-28.69 205.82-28.69 205.82-27.76 202.94-27.76ZM224.3-13.55L231.9-17.92 238.44-17.92 238.44-22.19 239.42-22.19 239.42-16.99 232.09-16.99 225.87-13.38 234.29-5.13 232.92-5.13 224.3-13.55ZM213.81-5.13L213.81-7.06 218.13-9.74 218.79-9.08 214.73-6.57 214.73-5.13 213.81-5.13ZM223.55 1.71L239 1.71 239-2.29 239.98-2.29 239.98 2.64 223.55 2.64 223.55 1.71ZM202.94 1.71L218.01 1.71 218.01-2.29 218.98-2.29 218.98 2.64 202.94 2.64 202.94 1.71ZM250.35-29.64L250.35-34.52 256.33-34.52 256.33-29.64 250.35-29.64ZM251.82-27L251.82-27.93 258.09-27.93 258.09-33.15 259.07-33.15 259.07-27 251.82-27ZM245.22 0L245.22-3.66 251.82-3.66 251.08-19.41 245.22-19.41 245.22-23.56 256.33-23.56 256.33-3.66 261.95-3.66 261.95 0 245.22 0ZM258.04-5.13L258.04-22.31 259.02-22.31 259.02-5.13 258.04-5.13ZM246.69-16.77L246.69-17.7 250.06-17.7 250.06-16.77 246.69-16.77ZM246.69 1.71L263.71 1.71 263.71-2.29 264.68-2.29 264.68 2.64 246.69 2.64 246.69 1.71ZM269.12 0L269.12-3.66 274.49-3.66 274.49-19.41 269.12-19.41 269.12-23.56 279.74-23.56 279.74-19.87Q280.5-20.8 281.56-21.61 282.62-22.41 283.94-23.01 285.26-23.61 286.8-23.95 288.34-24.29 290.02-24.29L290.02-24.29Q292.56-24.29 294.64-23.57 296.71-22.85 298.18-21.35 299.64-19.85 300.43-17.57 301.23-15.28 301.23-12.16L301.23-12.16 301.23-3.66 306.6-3.66 306.6 0 291.83 0 291.83-3.66 295.98-3.66 295.98-10.08Q295.98-12.06 295.8-13.61 295.61-15.16 295.27-16.04L295.27-16.04Q294.83-17.16 294.16-17.94 293.49-18.73 292.65-19.21 291.8-19.7 290.8-19.92 289.8-20.14 288.68-20.14L288.68-20.14Q287.48-20.14 286.2-19.7 284.92-19.26 283.71-18.47 282.5-17.68 281.46-16.6 280.43-15.53 279.74-14.28L279.74-14.28 279.74-3.66 283.89-3.66 283.89 0 269.12 0ZM302.99-5.13L302.99-11.99Q302.99-14.14 302.66-15.98 302.33-17.82 301.67-19.3 301.01-20.78 300.04-21.85 299.08-22.92 297.81-23.56L297.81-23.56Q299.47-23.14 300.64-22.16 301.81-21.17 302.55-19.65 303.28-18.14 303.62-16.16 303.96-14.18 303.96-11.82L303.96-11.82 303.96-5.13 302.99-5.13ZM281.5-5.13L281.5-13.67Q282.11-14.75 282.95-15.63 283.8-16.5 284.78-17.13 285.77-17.75 286.86-18.09 287.95-18.43 289.02-18.43L289.02-18.43Q290.71-18.43 291.75-17.8 292.8-17.16 293.29-16.19L293.29-16.19Q292.54-16.75 291.52-17.14 290.51-17.53 288.97-17.53L288.97-17.53Q288.02-17.53 287.04-17.18 286.07-16.82 285.19-16.24 284.31-15.65 283.6-14.89 282.89-14.14 282.48-13.35L282.48-13.35 282.48-5.13 281.5-5.13ZM270.59-16.77L270.59-17.7 273.47-17.7 273.47-16.77 270.59-16.77ZM293.29 1.71L308.36 1.71 308.36-2.29 309.33-2.29 309.33 2.64 293.29 2.64 293.29 1.71ZM270.59 1.71L285.65 1.71 285.65-2.29 286.63-2.29 286.63 2.64 270.59 2.64 270.59 1.71ZM313.77 7.47L316.51 4.27Q317.7 5.52 319.18 6.36 320.66 7.2 322.18 7.71 323.71 8.23 325.18 8.45 326.64 8.67 327.81 8.67L327.81 8.67Q330.11 8.67 331.94 8.24 333.77 7.81 335.05 6.69 336.33 5.57 337.02 3.61 337.7 1.66 337.7-1.42L337.7-1.42 337.7-3.61Q336.77-2.73 335.6-2.03 334.43-1.32 333.09-0.81 331.74-0.29 330.27-0.02 328.79 0.24 327.27 0.24L327.27 0.24Q323.86 0.24 321.21-0.61 318.56-1.46 316.75-3.04 314.95-4.61 314.01-6.86 313.07-9.11 313.07-11.89L313.07-11.89Q313.07-13.4 313.51-14.9 313.94-16.41 314.81-17.79 315.68-19.17 316.96-20.35 318.24-21.53 319.9-22.41 321.56-23.29 323.61-23.79 325.66-24.29 328.06-24.29L328.06-24.29Q329.18-24.29 330.46-24.08 331.74-23.88 333.01-23.44 334.28-23 335.49-22.3 336.7-21.61 337.7-20.63L337.7-20.63 337.7-23.56 348.2-23.56 348.2-19.41 342.83-19.41 342.83-1.42Q342.83 2.51 341.73 5.18 340.63 7.84 338.65 9.45 336.67 11.06 333.95 11.76 331.23 12.45 327.98 12.45L327.98 12.45Q326.08 12.45 324.08 12.16 322.07 11.87 320.18 11.27 318.29 10.67 316.63 9.73 314.97 8.79 313.77 7.47L313.77 7.47ZM315.21 10.86L315.21 10.86Q316.44 11.74 317.97 12.38 319.51 13.01 321.2 13.4 322.88 13.79 324.61 13.98 326.35 14.16 327.98 14.16L327.98 14.16Q330.2 14.16 332.3 13.83 334.4 13.5 336.25 12.77 338.09 12.04 339.63 10.84 341.17 9.64 342.27 7.9 343.36 6.15 343.97 3.82 344.58 1.49 344.58-1.54L344.58-1.54 344.58-17.7 349.96-17.7 349.96-22.19 350.93-22.19 350.93-16.77 345.56-16.77 345.56-1.54Q345.56 1.64 344.93 4.1 344.29 6.57 343.14 8.42 342 10.28 340.39 11.55 338.77 12.82 336.82 13.6 334.87 14.38 332.62 14.73 330.38 15.09 327.98 15.09L327.98 15.09Q326.13 15.09 324.2 14.79 322.27 14.5 320.55 13.95 318.83 13.4 317.42 12.62 316.02 11.84 315.21 10.86ZM318.36-12.08L318.36-12.08Q318.36-10.21 318.96-8.63 319.56-7.06 320.74-5.92 321.93-4.79 323.67-4.15 325.42-3.52 327.69-3.52L327.69-3.52Q329.5-3.52 331.29-3.97 333.09-4.42 334.51-5.44 335.94-6.47 336.82-8.13 337.7-9.79 337.7-12.21L337.7-12.21Q337.7-13.94 336.94-15.45 336.19-16.97 334.87-18.09 333.55-19.21 331.78-19.86 330.01-20.51 328.01-20.51L328.01-20.51Q326.05-20.51 324.31-19.9 322.56-19.29 321.24-18.16 319.93-17.04 319.15-15.49 318.36-13.94 318.36-12.08ZM320.07-12.04L320.07-12.04Q320.07-13.43 320.66-14.66 321.24-15.89 322.29-16.81 323.34-17.72 324.81-18.26 326.27-18.8 328.01-18.8L328.01-18.8Q330.33-18.8 331.85-18.05 333.38-17.31 334.26-16.16L334.26-16.16Q333.67-16.53 333.05-16.85 332.43-17.16 331.68-17.4 330.94-17.63 330.03-17.76 329.13-17.9 328.01-17.9L328.01-17.9Q326.47-17.9 325.2-17.42 323.93-16.94 323.01-16.14 322.1-15.33 321.6-14.29 321.1-13.26 321.1-12.13L321.1-12.13Q321.1-9.74 322.23-8.04 323.37-6.35 326.01-5.3L326.01-5.3Q324.74-5.42 323.65-5.96 322.56-6.49 321.77-7.37 320.98-8.25 320.52-9.44 320.07-10.62 320.07-12.04ZM316.02-1.54L316.02-1.54Q317.02-0.73 318.33-0.09 319.63 0.56 321.11 1.01 322.59 1.46 324.16 1.71 325.74 1.95 327.3 1.95L327.3 1.95Q330.01 1.95 332.37 1.31 334.72 0.66 336.55-0.54L336.55-0.54 336.41 0.68Q334.57 1.78 332.24 2.33 329.91 2.88 327.32 2.88L327.32 2.88Q323.37 2.88 320.46 1.77 317.56 0.66 316.02-1.54ZM370.82-15.19L370.82-15.19Q370.82-17.21 371.35-19.19 371.87-21.17 372.94-22.95 374-24.73 375.59-26.26 377.17-27.78 379.3-28.89 381.42-30 384.09-30.63 386.77-31.25 389.97-31.25L389.97-31.25Q391.67-31.25 393.36-30.98 395.04-30.71 396.59-30.24 398.14-29.76 399.52-29.08 400.9-28.39 401.98-27.56L401.98-27.56 401.98-30.4 407.52-30.4 407.52-21.61 401.98-21.61Q401.2-22.85 399.93-23.91 398.66-24.98 397.05-25.73 395.43-26.49 393.53-26.92 391.63-27.34 389.57-27.34L389.57-27.34Q386.35-27.34 383.97-26.32 381.59-25.29 380.03-23.6 378.47-21.9 377.7-19.71 376.93-17.53 376.93-15.19L376.93-15.19Q376.93-12.55 377.9-10.34 378.88-8.13 380.63-6.54 382.37-4.96 384.79-4.06 387.21-3.17 390.11-3.17L390.11-3.17Q392.75-3.17 394.9-3.69 397.05-4.2 398.73-5.16 400.41-6.13 401.65-7.52 402.88-8.91 403.71-10.64L403.71-10.64 407.47-8.11Q405.2-3.76 400.84-1.51 396.48 0.73 389.89 0.73L389.89 0.73Q385.74 0.73 382.25-0.49 378.76-1.71 376.22-3.86 373.68-6.01 372.25-8.91 370.82-11.82 370.82-15.19ZM403.44-18.97L403.44-19.9 409.28-19.9 409.28-29.15 410.25-29.15 410.25-18.97 403.44-18.97ZM378.69-15.21L378.69-15.21Q378.69-17.48 379.49-19.38 380.3-21.29 381.75-22.68 383.2-24.07 385.22-24.85 387.23-25.63 389.67-25.63L389.67-25.63Q392.87-25.63 395.3-24.65 397.73-23.66 399.19-21.83L399.19-21.83Q397.07-23.32 394.69-24.01 392.31-24.71 389.57-24.71L389.57-24.71Q387.26-24.71 385.41-23.95 383.57-23.19 382.29-21.91 381.01-20.63 380.33-18.93 379.66-17.24 379.66-15.36L379.66-15.36Q379.66-13.53 380.16-11.95 380.66-10.38 381.75-9.06 382.84-7.74 384.57-6.67 386.3-5.59 388.79-4.79L388.79-4.79Q386.5-5.1 384.63-5.98 382.76-6.86 381.44-8.2 380.13-9.55 379.41-11.32 378.69-13.09 378.69-15.21ZM376.78-1.17L376.78-1.17Q377.95-0.37 379.5 0.31 381.05 0.98 382.78 1.45 384.5 1.93 386.34 2.19 388.18 2.44 389.94 2.44L389.94 2.44Q393.07 2.44 395.89 1.9 398.71 1.37 401.06 0.33 403.42-0.71 405.22-2.23 407.03-3.76 408.13-5.71L408.13-5.71 408.98-5.2Q407.86-3.17 406.01-1.57 404.15 0.02 401.7 1.12 399.24 2.22 396.25 2.8 393.26 3.37 389.89 3.37L389.89 3.37Q387.96 3.37 386.06 3.09 384.15 2.81 382.43 2.23 380.71 1.66 379.26 0.82 377.81-0.02 376.78-1.17ZM414.84-11.4L414.84-11.4Q414.84-14.06 415.99-16.42 417.14-18.77 419.2-20.52 421.26-22.27 424.14-23.28 427.02-24.29 430.47-24.29L430.47-24.29Q434.08-24.29 436.92-23.33 439.77-22.36 441.73-20.65 443.7-18.95 444.74-16.6 445.77-14.26 445.77-11.5L445.77-11.5Q445.77-8.84 444.64-6.59 443.5-4.35 441.42-2.72 439.33-1.1 436.41-0.18 433.49 0.73 429.9 0.73L429.9 0.73Q426.51 0.73 423.74-0.28 420.97-1.29 418.99-2.98 417.01-4.66 415.93-6.85 414.84-9.03 414.84-11.4ZM418.67-1.12L418.67-1.12Q421.04 0.59 423.91 1.51 426.78 2.44 430.39 2.44L430.39 2.44Q433.76 2.44 436.86 1.53 439.96 0.61 442.33-1.17 444.7-2.95 446.12-5.55 447.53-8.15 447.53-11.5L447.53-11.5Q447.53-13.13 447.08-14.81 446.63-16.48 445.81-18.02 444.99-19.56 443.82-20.89 442.65-22.22 441.21-23.14L441.21-23.14Q442.84-22.41 444.2-21.22 445.55-20.02 446.51-18.49 447.46-16.97 447.98-15.19 448.51-13.4 448.51-11.5L448.51-11.5Q448.51-9.11 447.82-7.07 447.14-5.03 445.93-3.38 444.72-1.73 443.05-0.46 441.38 0.81 439.38 1.65 437.37 2.49 435.12 2.93 432.86 3.37 430.51 3.37L430.51 3.37Q428.56 3.37 426.78 3.06 425 2.76 423.47 2.19 421.95 1.61 420.72 0.78 419.5-0.05 418.67-1.12ZM420.26-11.5L420.26-11.5Q420.26-9.62 420.98-8.07 421.7-6.52 423.02-5.41 424.34-4.3 426.18-3.69 428.02-3.08 430.27-3.08L430.27-3.08Q432.54-3.08 434.4-3.7 436.25-4.32 437.59-5.43 438.94-6.54 439.67-8.09 440.4-9.64 440.4-11.5L440.4-11.5Q440.4-13.33 439.67-14.95 438.94-16.58 437.62-17.81 436.3-19.04 434.46-19.76 432.61-20.48 430.39-20.48L430.39-20.48Q428.07-20.48 426.21-19.79 424.34-19.09 423.02-17.88 421.7-16.67 420.98-15.04 420.26-13.4 420.26-11.5ZM421.97-11.4L421.97-11.4Q421.97-12.94 422.58-14.29 423.19-15.65 424.3-16.64 425.41-17.63 426.96-18.2 428.51-18.77 430.39-18.77L430.39-18.77Q431.59-18.77 432.71-18.52 433.83-18.26 434.79-17.77 435.74-17.29 436.47-16.59 437.2-15.89 437.64-15.01L437.64-15.01Q436.03-16.48 434.29-17.16 432.54-17.85 430.34-17.85L430.34-17.85Q428.76-17.85 427.41-17.33 426.07-16.82 425.07-15.94 424.07-15.06 423.51-13.89 422.95-12.72 422.95-11.4L422.95-11.4Q422.95-10.3 423.21-9.35 423.48-8.4 424.13-7.58 424.78-6.76 425.85-6.1 426.93-5.44 428.54-4.93L428.54-4.93Q427.07-5.03 425.86-5.55 424.66-6.08 423.79-6.93 422.92-7.79 422.45-8.94 421.97-10.08 421.97-11.4ZM454.12-11.45L454.12-11.45Q454.12-13.72 455.07-15.93 456.02-18.14 457.89-19.89 459.76-21.63 462.52-22.72 465.28-23.8 468.87-23.8L468.87-23.8Q470.01-23.8 471.32-23.63 472.63-23.46 473.93-23.07 475.24-22.68 476.48-22.03 477.73-21.39 478.75-20.46L478.75-20.46 478.75-30.15 473.38-30.15 473.38-34.06 484-34.06 484-3.66 488.15-3.66 488.15 0 478.75 0 478.75-3.1Q476.85-1.25 474.16-0.26 471.48 0.73 468.33 0.73L468.33 0.73Q465.33 0.73 462.74-0.06 460.15-0.85 458.23-2.39 456.32-3.93 455.22-6.2 454.12-8.47 454.12-11.45ZM485.76-5.13L485.76-32.81 486.74-32.81 486.74-5.13 485.76-5.13ZM474.85-27.51L474.85-28.44 477.73-28.44 477.73-27.51 474.85-27.51ZM459.42-11.65L459.42-11.65Q459.42-9.67 460.07-8.08 460.71-6.49 461.92-5.37 463.13-4.25 464.85-3.64 466.57-3.03 468.74-3.03L468.74-3.03Q469.89-3.03 471.08-3.26 472.26-3.49 473.37-3.97 474.48-4.44 475.47-5.16 476.46-5.88 477.18-6.87 477.9-7.86 478.33-9.13 478.75-10.4 478.75-11.96L478.75-11.96Q478.75-13.7 477.95-15.17 477.14-16.65 475.79-17.72 474.43-18.8 472.63-19.41 470.82-20.02 468.82-20.02L468.82-20.02Q466.86-20.02 465.16-19.41 463.45-18.8 462.16-17.7 460.88-16.6 460.15-15.05 459.42-13.5 459.42-11.65ZM461.13-11.65L461.13-11.65Q461.13-13.04 461.68-14.23 462.23-15.43 463.23-16.33 464.23-17.24 465.66-17.75 467.08-18.26 468.82-18.26L468.82-18.26Q471.31-18.26 473.02-17.53 474.73-16.8 475.34-15.7L475.34-15.7Q474.02-16.55 472.37-16.94 470.72-17.33 468.82-17.33L468.82-17.33Q467.28-17.33 466.05-16.88 464.81-16.43 463.95-15.65 463.08-14.87 462.6-13.81 462.13-12.74 462.13-11.55L462.13-11.55Q462.13-6.93 467.33-4.76L467.33-4.76Q465.84-4.93 464.69-5.54 463.54-6.15 462.75-7.07 461.96-7.98 461.54-9.16 461.13-10.33 461.13-11.65ZM480.22 1.71L489.91 1.71 489.91-2.29 490.89-2.29 490.89 2.64 480.22 2.64 480.22 1.71ZM457.27-1.05L457.27-1.05Q458.27-0.24 459.54 0.4 460.81 1.05 462.25 1.5 463.69 1.95 465.24 2.2 466.79 2.44 468.35 2.44L468.35 2.44Q471.06 2.44 473.42 1.77 475.78 1.1 477.61-0.1L477.61-0.1 477.61 1.03Q475.78 2.12 473.37 2.75 470.97 3.37 468.38 3.37L468.38 3.37Q464.42 3.37 461.62 2.26 458.81 1.15 457.27-1.05ZM495.4-11.33L495.4-11.33Q495.4-13.92 496.35-16.26 497.31-18.6 499.21-20.39 501.11-22.17 503.95-23.23 506.78-24.29 510.51-24.29L510.51-24.29Q514.03-24.29 516.79-23.35 519.55-22.41 521.48-20.63 523.4-18.85 524.42-16.27 525.43-13.7 525.43-10.4L525.43-10.4 500.75-10.4Q500.97-8.64 501.88-7.28 502.8-5.91 504.22-4.97 505.63-4.03 507.43-3.54 509.22-3.05 511.17-3.05L511.17-3.05Q512.76-3.05 514.41-3.31 516.06-3.56 517.52-4 518.99-4.44 520.13-4.99 521.28-5.54 521.89-6.13L521.89-6.13 522.82-6.13 525.11-3.64Q522.6-1.49 519-0.38 515.4 0.73 511.05 0.73L511.05 0.73Q507.27 0.73 504.35-0.2 501.43-1.12 499.44-2.76 497.45-4.39 496.43-6.59 495.4-8.79 495.4-11.33ZM503.09-8.69L527.09-8.69Q527.14-9.06 527.16-9.48 527.19-9.91 527.19-10.4L527.19-10.4Q527.19-12.48 526.76-14.37 526.33-16.26 525.52-17.88 524.7-19.51 523.5-20.85 522.31-22.19 520.79-23.14L520.79-23.14Q522.4-22.51 523.76-21.4 525.11-20.29 526.09-18.7 527.07-17.11 527.62-15.04 528.17-12.96 528.17-10.4L528.17-10.4Q528.17-10.21 528.15-9.91 528.14-9.62 528.12-9.25 528.09-8.89 528.06-8.51 528.02-8.13 527.97-7.76L527.97-7.76 504.9-7.76Q505.36-6.98 506.61-6.16 507.85-5.35 509.83-4.79L509.83-4.79Q508.61-4.79 507.55-5.08 506.49-5.37 505.62-5.88 504.75-6.4 504.11-7.12 503.46-7.84 503.09-8.69L503.09-8.69ZM500.9-13.45L519.79-13.45Q519.4-15.14 518.58-16.46 517.77-17.77 516.57-18.66 515.37-19.56 513.83-20.03 512.3-20.51 510.47-20.51L510.47-20.51Q508.49-20.51 506.86-19.98 505.24-19.46 504.02-18.52 502.8-17.58 502.01-16.28 501.21-14.99 500.9-13.45L500.9-13.45ZM504.24-14.5L503.12-14.5Q504.02-16.5 505.96-17.65 507.9-18.8 510.47-18.8L510.47-18.8Q511.52-18.8 512.5-18.63 513.49-18.46 514.34-18.1 515.18-17.75 515.81-17.24 516.45-16.72 516.81-16.06L516.81-16.06Q515.42-16.99 513.83-17.43 512.25-17.87 510.42-17.87L510.42-17.87Q508.29-17.87 506.68-16.99 505.07-16.11 504.24-14.5L504.24-14.5ZM498.36-1.07L498.36-1.07Q500.72 0.61 503.86 1.54 507 2.47 511.05 2.47L511.05 2.47Q515.01 2.47 518.46 1.56 521.92 0.66 524.7-1.2L524.7-1.2 525.36-0.49Q522.21 1.64 518.73 2.51 515.25 3.39 511.44 3.39L511.44 3.39Q506.49 3.39 503.23 2.2 499.97 1 498.36-1.07ZM535.24-18.8L534.51-30.4 540-30.4 539.27-18.8 535.24-18.8ZM536.73-16.16L536.73-17.09 540.81-17.09 541.79-29.15 542.76-29.15 541.76-16.16 536.73-16.16ZM549.55 0L549.55-6.71 554.58-6.71Q555.24-5.71 556.46-4.96 557.68-4.2 559.25-3.71 560.83-3.22 562.71-2.98 564.59-2.73 566.56-2.73L566.56-2.73Q568.2-2.73 569.35-2.98 570.49-3.22 571.2-3.66 571.91-4.1 572.23-4.69 572.55-5.27 572.55-5.98L572.55-5.98Q572.55-7.47 570.17-8.53 567.78-9.59 562.63-10.16L562.63-10.16Q559.22-10.52 556.92-11.17 554.63-11.82 553.22-12.74 551.82-13.67 551.22-14.87 550.62-16.06 550.62-17.5L550.62-17.5Q550.62-18.75 551.4-19.97 552.18-21.19 553.78-22.16 555.38-23.12 557.79-23.71 560.19-24.29 563.44-24.29L563.44-24.29Q564.49-24.29 565.59-24.15 566.69-24 567.74-23.72 568.79-23.44 569.74-23.05 570.69-22.66 571.45-22.17L571.45-22.17 571.45-23.54 576.7-23.54 576.7-16.94 571.45-16.94Q571.18-17.7 570.32-18.38 569.47-19.07 568.3-19.58 567.13-20.09 565.81-20.4 564.49-20.7 563.32-20.7L563.32-20.7Q561.78-20.7 560.41-20.48 559.04-20.26 558.04-19.86 557.04-19.46 556.46-18.9 555.87-18.33 555.87-17.65L555.87-17.65Q555.87-17.02 556.32-16.5 556.77-15.99 557.84-15.55 558.9-15.11 560.67-14.73 562.44-14.36 565.07-14.04L565.07-14.04Q568.59-13.6 571.01-12.92 573.42-12.23 574.94-11.24 576.45-10.25 577.12-8.94 577.79-7.62 577.79-5.91L577.79-5.91Q577.79-4.66 577.04-3.48 576.28-2.29 574.83-1.35 573.38-0.42 571.26 0.16 569.15 0.73 566.42 0.73L566.42 0.73Q564.66 0.73 563.12 0.6 561.58 0.46 560.17 0.15 558.75-0.17 557.43-0.66 556.11-1.15 554.8-1.86L554.8-1.86 554.8 0 549.55 0ZM572.64-14.31L572.64-15.23 578.45-15.23 578.45-22.51 579.43-22.51 579.43-14.31 572.64-14.31ZM557.65-17.65L557.65-17.65Q557.73-17.97 558.24-18.24 558.75-18.51 559.55-18.71 560.34-18.92 561.3-19.04 562.27-19.17 563.24-19.17L563.24-19.17Q564.07-19.17 564.96-19.04 565.86-18.92 566.65-18.7 567.44-18.48 568.09-18.15 568.74-17.82 569.1-17.41L569.1-17.41Q568.54-17.65 567.76-17.81 566.98-17.97 566.16-18.07 565.34-18.16 564.56-18.21 563.78-18.26 563.24-18.26L563.24-18.26Q561.27-18.26 559.81-18.07 558.36-17.87 557.65-17.65ZM550.96-12.82L550.96-12.82Q551.65-11.94 552.6-11.25 553.55-10.57 554.89-10.03 556.24-9.5 558.02-9.12 559.8-8.74 562.12-8.47L562.12-8.47Q564.24-8.23 565.81-7.95 567.37-7.67 568.42-7.32 569.47-6.98 570.06-6.56 570.64-6.13 570.81-5.59L570.81-5.59Q570.3-5.93 569.64-6.19 568.98-6.45 567.96-6.67 566.93-6.88 565.43-7.1 563.93-7.32 561.71-7.59L561.71-7.59Q557.12-8.13 554.45-9.34 551.79-10.55 550.96-12.82ZM550.74 1.71L556.55 1.71 556.55 0.68Q557.24 1 558.29 1.31 559.34 1.61 560.64 1.87 561.95 2.12 563.41 2.28 564.88 2.44 566.39 2.44L566.39 2.44Q569.42 2.44 571.86 1.77 574.3 1.1 576.01-0.04 577.72-1.17 578.64-2.67 579.55-4.17 579.55-5.83L579.55-5.83Q579.55-6.49 579.48-7.06 579.41-7.62 579.22-8.13 579.04-8.64 578.73-9.16 578.43-9.67 577.97-10.23L577.97-10.23Q580.53-8.72 580.53-5.83L580.53-5.83Q580.53-3.88 579.53-2.2 578.53-0.51 576.68 0.72 574.84 1.95 572.23 2.66 569.62 3.37 566.37 3.37L566.37 3.37Q565.17 3.37 563.95 3.26 562.73 3.15 561.58 2.95 560.44 2.76 559.41 2.49 558.39 2.22 557.58 1.88L557.58 1.88 557.58 2.69 550.74 2.69 550.74 1.71ZM603.79 0L603.79-8.79 608.8-8.79Q612.04-5.86 615.73-4.5 619.42-3.15 623.44-3.15L623.44-3.15Q625.2-3.15 626.67-3.49 628.13-3.83 629.21-4.43 630.28-5.03 630.88-5.83 631.48-6.64 631.48-7.57L631.48-7.57Q631.48-8.64 630.79-9.55 630.11-10.45 628.61-11.18 627.11-11.91 624.75-12.45 622.39-12.99 619.07-13.33L619.07-13.33Q615.22-13.72 612.51-14.61 609.8-15.5 608.08-16.77 606.35-18.04 605.56-19.6 604.77-21.17 604.77-22.9L604.77-22.9Q604.77-24.51 605.69-26.01 606.62-27.51 608.45-28.67 610.28-29.83 613.02-30.54 615.75-31.25 619.37-31.25L619.37-31.25Q621.47-31.25 623.21-30.92 624.96-30.59 626.43-30.03 627.91-29.47 629.16-28.7 630.4-27.93 631.5-27.05L631.5-27.05 631.5-30.4 636.99-30.4 636.99-21.61 631.5-21.61Q630.77-22.83 629.6-23.88 628.42-24.93 626.9-25.7 625.37-26.46 623.57-26.9 621.76-27.34 619.78-27.34L619.78-27.34Q617.71-27.34 616.13-26.97 614.56-26.59 613.5-25.99 612.43-25.39 611.9-24.66 611.36-23.93 611.36-23.22L611.36-23.22Q611.36-22.31 611.83-21.5 612.31-20.68 613.52-19.98 614.73-19.29 616.8-18.74 618.88-18.19 622.08-17.8L622.08-17.8Q626.57-17.24 629.6-16.38 632.62-15.53 634.45-14.32 636.29-13.11 637.07-11.51 637.85-9.91 637.85-7.91L637.85-7.91Q637.85-6.4 637.03-4.86 636.21-3.32 634.54-2.08 632.87-0.83 630.3-0.05 627.74 0.73 624.27 0.73L624.27 0.73Q622.1 0.73 620.11 0.45 618.12 0.17 616.28-0.38 614.44-0.93 612.7-1.73 610.97-2.54 609.28-3.61L609.28-3.61 609.28 0 603.79 0ZM632.97-18.97L632.97-19.9 638.75-19.9 638.75-29.15 639.78-29.15 639.78-18.97 632.97-18.97ZM613.39-23.36L613.39-23.36Q613.39-23.88 613.91-24.29 614.44-24.71 615.36-25 616.29-25.29 617.55-25.46 618.81-25.63 620.27-25.63L620.27-25.63Q622.49-25.63 624.38-24.94 626.28-24.24 627.52-23.14L627.52-23.14Q626.84-23.44 625.98-23.72 625.13-24 624.19-24.23 623.25-24.46 622.26-24.6 621.27-24.73 620.32-24.73L620.32-24.73Q617.66-24.73 615.94-24.3 614.22-23.88 613.39-23.36ZM605.48-17.04L605.48-17.04Q606.31-15.97 607.42-15.11 608.53-14.26 610.1-13.6 611.68-12.94 613.79-12.45 615.9-11.96 618.73-11.65L618.73-11.65Q621.49-11.33 623.46-10.99 625.42-10.64 626.72-10.24 628.01-9.84 628.71-9.33 629.4-8.81 629.64-8.13L629.64-8.13Q628.94-8.54 628.14-8.87 627.35-9.2 626.1-9.51 624.86-9.81 622.98-10.11 621.1-10.4 618.24-10.74L618.24-10.74Q615.24-11.11 612.93-11.74 610.63-12.38 609.03-13.2 607.43-14.01 606.54-15 605.65-15.99 605.48-17.04ZM605.26 1.71L611.04 1.71 611.04-0.71Q613.97 0.83 617.17 1.64 620.37 2.44 624.25 2.44L624.25 2.44Q627.2 2.44 629.96 1.81 632.72 1.17 634.87-0.1 637.02-1.37 638.31-3.3 639.61-5.22 639.61-7.81L639.61-7.81Q639.61-9.38 639.28-10.66 638.95-11.94 637.97-13.23L637.97-13.23Q638.56-12.82 639.03-12.22 639.51-11.62 639.85-10.9 640.19-10.18 640.39-9.39 640.58-8.59 640.58-7.81L640.58-7.81Q640.58-5.13 639.3-3.05 638.02-0.98 635.8 0.45 633.58 1.88 630.6 2.62 627.62 3.37 624.23 3.37L624.23 3.37Q620.42 3.37 617.43 2.71 614.44 2.05 612.07 0.88L612.07 0.88 612.07 2.64 605.26 2.64 605.26 1.71ZM646.54-11.33L646.54-11.33Q646.54-13.92 647.49-16.26 648.44-18.6 650.35-20.39 652.25-22.17 655.08-23.23 657.91-24.29 661.65-24.29L661.65-24.29Q665.16-24.29 667.92-23.35 670.68-22.41 672.61-20.63 674.54-18.85 675.55-16.27 676.57-13.7 676.57-10.4L676.57-10.4 651.88-10.4Q652.1-8.64 653.02-7.28 653.93-5.91 655.35-4.97 656.77-4.03 658.56-3.54 660.36-3.05 662.31-3.05L662.31-3.05Q663.9-3.05 665.54-3.31 667.19-3.56 668.66-4 670.12-4.44 671.27-4.99 672.42-5.54 673.03-6.13L673.03-6.13 673.95-6.13 676.25-3.64Q673.73-1.49 670.13-0.38 666.53 0.73 662.19 0.73L662.19 0.73Q658.4 0.73 655.48-0.2 652.57-1.12 650.58-2.76 648.59-4.39 647.56-6.59 646.54-8.79 646.54-11.33ZM654.23-8.69L678.23-8.69Q678.28-9.06 678.3-9.48 678.32-9.91 678.32-10.4L678.32-10.4Q678.32-12.48 677.9-14.37 677.47-16.26 676.65-17.88 675.83-19.51 674.64-20.85 673.44-22.19 671.93-23.14L671.93-23.14Q673.54-22.51 674.89-21.4 676.25-20.29 677.23-18.7 678.2-17.11 678.75-15.04 679.3-12.96 679.3-10.4L679.3-10.4Q679.3-10.21 679.29-9.91 679.28-9.62 679.25-9.25 679.23-8.89 679.19-8.51 679.15-8.13 679.11-7.76L679.11-7.76 656.03-7.76Q656.5-6.98 657.74-6.16 658.99-5.35 660.97-4.79L660.97-4.79Q659.75-4.79 658.68-5.08 657.62-5.37 656.75-5.88 655.89-6.4 655.24-7.12 654.59-7.84 654.23-8.69L654.23-8.69ZM652.03-13.45L670.93-13.45Q670.54-15.14 669.72-16.46 668.9-17.77 667.7-18.66 666.51-19.56 664.97-20.03 663.43-20.51 661.6-20.51L661.6-20.51Q659.62-20.51 658-19.98 656.38-19.46 655.16-18.52 653.93-17.58 653.14-16.28 652.35-14.99 652.03-13.45L652.03-13.45ZM655.37-14.5L654.25-14.5Q655.16-16.5 657.1-17.65 659.04-18.8 661.6-18.8L661.6-18.8Q662.65-18.8 663.64-18.63 664.63-18.46 665.47-18.1 666.31-17.75 666.95-17.24 667.58-16.72 667.95-16.06L667.95-16.06Q666.56-16.99 664.97-17.43 663.38-17.87 661.55-17.87L661.55-17.87Q659.43-17.87 657.82-16.99 656.2-16.11 655.37-14.5L655.37-14.5ZM649.49-1.07L649.49-1.07Q651.86 0.61 655 1.54 658.13 2.47 662.19 2.47L662.19 2.47Q666.14 2.47 669.6 1.56 673.05 0.66 675.83-1.2L675.83-1.2 676.49-0.49Q673.34 1.64 669.86 2.51 666.39 3.39 662.58 3.39L662.58 3.39Q657.62 3.39 654.36 2.2 651.1 1 649.49-1.07ZM684.67-11.33L684.67-11.33Q684.67-13.92 685.78-16.26 686.89-18.6 688.91-20.39 690.92-22.17 693.76-23.23 696.61-24.29 700.05-24.29L700.05-24.29Q702.93-24.29 705.26-23.52 707.59-22.75 709.57-21.36L709.57-21.36 709.57-23.54 714.82-23.54 714.82-15.97 709.82-15.97Q709.13-16.82 708.13-17.64 707.13-18.46 705.87-19.09 704.62-19.73 703.13-20.12 701.64-20.51 699.98-20.51L699.98-20.51Q697.85-20.51 696.02-19.82 694.19-19.14 692.85-17.92 691.51-16.7 690.74-15.04 689.97-13.38 689.97-11.43L689.97-11.43Q689.97-9.4 690.79-7.84 691.6-6.27 693.04-5.21 694.48-4.15 696.46-3.6 698.44-3.05 700.76-3.05L700.76-3.05Q704.52-3.05 707.41-4.25 710.3-5.44 712.57-7.93L712.57-7.93 715.16-4.98Q712.5-2.12 708.99-0.7 705.47 0.73 700.88 0.73L700.88 0.73Q697.02 0.73 694.01-0.13 690.99-1 688.92-2.59 686.84-4.17 685.76-6.4 684.67-8.62 684.67-11.33ZM711.01-13.33L711.01-14.26 716.58-14.26 716.58-22.51 717.56-22.51 717.56-13.33 711.01-13.33ZM691.72-11.43L691.72-11.43Q691.72-13.06 692.36-14.42 692.99-15.77 694.11-16.75 695.22-17.72 696.73-18.26 698.24-18.8 700-18.8L700-18.8Q701.05-18.8 702.13-18.6 703.2-18.41 704.15-18.05 705.1-17.7 705.86-17.21 706.62-16.72 707.06-16.14L707.06-16.14Q705.59-16.92 703.92-17.4 702.25-17.87 700.1-17.87L700.1-17.87Q698.39-17.87 697.02-17.35 695.66-16.82 694.69-15.94 693.73-15.06 693.21-13.89 692.7-12.72 692.7-11.43L692.7-11.43Q692.7-10.13 693.1-9.14 693.51-8.15 694.26-7.36 695.02-6.57 696.12-5.97 697.22-5.37 698.61-4.88L698.61-4.88Q697-5.03 695.72-5.57 694.43-6.1 693.56-6.95 692.68-7.79 692.2-8.92 691.72-10.06 691.72-11.43ZM688.16-1.12L688.16-1.12Q689.33-0.27 690.77 0.4 692.21 1.07 693.86 1.53 695.51 1.98 697.29 2.22 699.07 2.47 700.9 2.47L700.9 2.47Q703.1 2.47 705.21 2.11 707.33 1.76 709.18 1.1 711.04 0.44 712.57-0.5 714.11-1.44 715.19-2.61L715.19-2.61 715.89-1.98Q713.23 0.73 709.44 2.06 705.64 3.39 700.86 3.39L700.86 3.39Q698.88 3.39 696.93 3.1 694.97 2.81 693.26 2.23 691.55 1.66 690.22 0.82 688.89-0.02 688.16-1.12ZM724.24 0L724.24-3.66 729.61-3.66 729.61-19.41 724.24-19.41 724.24-23.56 734.86-23.56 734.86-19.48Q735.62-20.46 736.68-21.34 737.74-22.22 739.09-22.88 740.43-23.54 742.02-23.91 743.6-24.29 745.41-24.29L745.41-24.29Q745.95-24.29 746.75-24.26 747.56-24.22 748.29-24.1L748.29-24.1 748.29-19.31Q747.44-19.51 746.61-19.58 745.78-19.65 744.99-19.65L744.99-19.65Q743.04-19.65 741.3-19.03 739.55-18.41 738.18-17.22 736.82-16.04 735.94-14.33 735.06-12.62 734.86-10.42L734.86-10.42 734.86-3.66 743.65-3.66 743.65 0 724.24 0ZM736.57-5.13L736.57-8.23Q736.57-10.52 737.16-12.33 737.74-14.14 738.83-15.38 739.92-16.63 741.48-17.29 743.04-17.94 744.99-17.94L744.99-17.94Q745.41-17.94 746.04-17.88 746.68-17.82 747.37-17.7 748.07-17.58 748.78-17.4 749.49-17.21 750.05-16.97L750.05-16.97 750.05-22.73 751.02-22.73 751.02-15.75Q750.34-16.04 749.55-16.27 748.75-16.5 747.94-16.67 747.12-16.85 746.36-16.93 745.6-17.02 744.99-17.02L744.99-17.02Q743.21-17.02 741.83-16.43 740.45-15.84 739.5-14.75 738.55-13.65 738.05-12.06 737.55-10.47 737.55-8.47L737.55-8.47 737.55-5.13 736.57-5.13ZM725.71-16.77L725.71-17.7 728.59-17.7 728.59-16.77 725.71-16.77ZM725.71 1.71L745.41 1.71 745.41-2.29 746.39-2.29 746.39 2.64 725.71 2.64 725.71 1.71ZM755.54-11.33L755.54-11.33Q755.54-13.92 756.49-16.26 757.44-18.6 759.35-20.39 761.25-22.17 764.08-23.23 766.92-24.29 770.65-24.29L770.65-24.29Q774.17-24.29 776.93-23.35 779.68-22.41 781.61-20.63 783.54-18.85 784.55-16.27 785.57-13.7 785.57-10.4L785.57-10.4 760.88-10.4Q761.1-8.64 762.02-7.28 762.94-5.91 764.35-4.97 765.77-4.03 767.56-3.54 769.36-3.05 771.31-3.05L771.31-3.05Q772.9-3.05 774.54-3.31 776.19-3.56 777.66-4 779.12-4.44 780.27-4.99 781.42-5.54 782.03-6.13L782.03-6.13 782.96-6.13 785.25-3.64Q782.74-1.49 779.13-0.38 775.53 0.73 771.19 0.73L771.19 0.73Q767.4 0.73 764.49-0.2 761.57-1.12 759.58-2.76 757.59-4.39 756.56-6.59 755.54-8.79 755.54-11.33ZM763.23-8.69L787.23-8.69Q787.28-9.06 787.3-9.48 787.33-9.91 787.33-10.4L787.33-10.4Q787.33-12.48 786.9-14.37 786.47-16.26 785.65-17.88 784.84-19.51 783.64-20.85 782.44-22.19 780.93-23.14L780.93-23.14Q782.54-22.51 783.9-21.4 785.25-20.29 786.23-18.7 787.2-17.11 787.75-15.04 788.3-12.96 788.3-10.4L788.3-10.4Q788.3-10.21 788.29-9.91 788.28-9.62 788.25-9.25 788.23-8.89 788.19-8.51 788.16-8.13 788.11-7.76L788.11-7.76 765.04-7.76Q765.5-6.98 766.74-6.16 767.99-5.35 769.97-4.79L769.97-4.79Q768.75-4.79 767.68-5.08 766.62-5.37 765.76-5.88 764.89-6.4 764.24-7.12 763.59-7.84 763.23-8.69L763.23-8.69ZM761.03-13.45L779.93-13.45Q779.54-15.14 778.72-16.46 777.9-17.77 776.71-18.66 775.51-19.56 773.97-20.03 772.43-20.51 770.6-20.51L770.6-20.51Q768.62-20.51 767-19.98 765.38-19.46 764.16-18.52 762.94-17.58 762.14-16.28 761.35-14.99 761.03-13.45L761.03-13.45ZM764.38-14.5L763.25-14.5Q764.16-16.5 766.1-17.65 768.04-18.8 770.6-18.8L770.6-18.8Q771.65-18.8 772.64-18.63 773.63-18.46 774.47-18.1 775.31-17.75 775.95-17.24 776.58-16.72 776.95-16.06L776.95-16.06Q775.56-16.99 773.97-17.43 772.38-17.87 770.55-17.87L770.55-17.87Q768.43-17.87 766.82-16.99 765.21-16.11 764.38-14.5L764.38-14.5ZM758.49-1.07L758.49-1.07Q760.86 0.61 764 1.54 767.13 2.47 771.19 2.47L771.19 2.47Q775.14 2.47 778.6 1.56 782.05 0.66 784.84-1.2L784.84-1.2 785.49-0.49Q782.34 1.64 778.87 2.51 775.39 3.39 771.58 3.39L771.58 3.39Q766.62 3.39 763.36 2.2 760.1 1 758.49-1.07ZM798.16-8.74L798.16-19.41 792.79-19.41 792.79-23.56 798.16-23.56 798.16-28.49 803.41-30.69 803.41-23.56 815.55-23.56 815.55-19.41 803.41-19.41 803.41-7.76Q803.41-5.93 804.56-5.04 805.71-4.15 807.68-4.15L807.68-4.15 814.57-4.15 814.57 0 807.68 0Q805.71 0 803.97-0.43 802.24-0.85 800.95-1.87 799.65-2.88 798.91-4.55 798.16-6.23 798.16-8.74L798.16-8.74ZM805.17-25.02L805.17-29.35 806.15-29.79 806.15-25.02 805.17-25.02ZM805.12-6.76L805.12-17.97 817.3-17.97 817.3-22.46 818.28-22.46 818.28-17.04 806.1-17.04 806.1-5.79Q805.27-6.01 805.12-6.76L805.12-6.76ZM794.26-16.77L794.26-17.7 797.19-17.7 797.19-16.77 794.26-16.77ZM798.02-2.1L798.02-2.1Q798.8-1 799.76-0.27 800.73 0.46 801.92 0.9 803.12 1.34 804.53 1.53 805.95 1.71 807.64 1.71L807.64 1.71 816.33 1.71 816.33-3.05 817.3-3.05 817.3 2.64 807.51 2.64Q805.63 2.64 804.1 2.39 802.56 2.15 801.37 1.6 800.19 1.05 799.35 0.13 798.5-0.78 798.02-2.1ZM824.55 0L824.55-6.71 829.58-6.71Q830.24-5.71 831.46-4.96 832.68-4.2 834.26-3.71 835.83-3.22 837.71-2.98 839.59-2.73 841.57-2.73L841.57-2.73Q843.2-2.73 844.35-2.98 845.5-3.22 846.21-3.66 846.92-4.1 847.23-4.69 847.55-5.27 847.55-5.98L847.55-5.98Q847.55-7.47 845.17-8.53 842.79-9.59 837.64-10.16L837.64-10.16Q834.22-10.52 831.92-11.17 829.63-11.82 828.23-12.74 826.82-13.67 826.22-14.87 825.63-16.06 825.63-17.5L825.63-17.5Q825.63-18.75 826.41-19.97 827.19-21.19 828.79-22.16 830.39-23.12 832.79-23.71 835.2-24.29 838.44-24.29L838.44-24.29Q839.49-24.29 840.59-24.15 841.69-24 842.74-23.72 843.79-23.44 844.74-23.05 845.69-22.66 846.45-22.17L846.45-22.17 846.45-23.54 851.7-23.54 851.7-16.94 846.45-16.94Q846.18-17.7 845.33-18.38 844.47-19.07 843.3-19.58 842.13-20.09 840.81-20.4 839.49-20.7 838.32-20.7L838.32-20.7Q836.78-20.7 835.42-20.48 834.05-20.26 833.05-19.86 832.05-19.46 831.46-18.9 830.88-18.33 830.88-17.65L830.88-17.65Q830.88-17.02 831.33-16.5 831.78-15.99 832.84-15.55 833.9-15.11 835.67-14.73 837.44-14.36 840.08-14.04L840.08-14.04Q843.59-13.6 846.01-12.92 848.43-12.23 849.94-11.24 851.46-10.25 852.13-8.94 852.8-7.62 852.8-5.91L852.8-5.91Q852.8-4.66 852.04-3.48 851.29-2.29 849.83-1.35 848.38-0.42 846.27 0.16 844.16 0.73 841.42 0.73L841.42 0.73Q839.66 0.73 838.13 0.6 836.59 0.46 835.17 0.15 833.76-0.17 832.44-0.66 831.12-1.15 829.8-1.86L829.8-1.86 829.8 0 824.55 0ZM847.65-14.31L847.65-15.23 853.46-15.23 853.46-22.51 854.43-22.51 854.43-14.31 847.65-14.31ZM832.66-17.65L832.66-17.65Q832.73-17.97 833.24-18.24 833.76-18.51 834.55-18.71 835.34-18.92 836.31-19.04 837.27-19.17 838.25-19.17L838.25-19.17Q839.08-19.17 839.97-19.04 840.86-18.92 841.65-18.7 842.45-18.48 843.09-18.15 843.74-17.82 844.11-17.41L844.11-17.41Q843.55-17.65 842.76-17.81 841.98-17.97 841.17-18.07 840.35-18.16 839.57-18.21 838.79-18.26 838.25-18.26L838.25-18.26Q836.27-18.26 834.82-18.07 833.37-17.87 832.66-17.65ZM825.97-12.82L825.97-12.82Q826.65-11.94 827.6-11.25 828.56-10.57 829.9-10.03 831.24-9.5 833.02-9.12 834.81-8.74 837.13-8.47L837.13-8.47Q839.25-8.23 840.81-7.95 842.37-7.67 843.42-7.32 844.47-6.98 845.06-6.56 845.65-6.13 845.82-5.59L845.82-5.59Q845.3-5.93 844.64-6.19 843.99-6.45 842.96-6.67 841.93-6.88 840.43-7.1 838.93-7.32 836.71-7.59L836.71-7.59Q832.12-8.13 829.46-9.34 826.8-10.55 825.97-12.82ZM825.75 1.71L831.56 1.71 831.56 0.68Q832.24 1 833.29 1.31 834.34 1.61 835.65 1.87 836.95 2.12 838.42 2.28 839.88 2.44 841.4 2.44L841.4 2.44Q844.42 2.44 846.87 1.77 849.31 1.1 851.02-0.04 852.73-1.17 853.64-2.67 854.56-4.17 854.56-5.83L854.56-5.83Q854.56-6.49 854.48-7.06 854.41-7.62 854.23-8.13 854.04-8.64 853.74-9.16 853.43-9.67 852.97-10.23L852.97-10.23Q855.53-8.72 855.53-5.83L855.53-5.83Q855.53-3.88 854.53-2.2 853.53-0.51 851.69 0.72 849.84 1.95 847.23 2.66 844.62 3.37 841.37 3.37L841.37 3.37Q840.18 3.37 838.96 3.26 837.74 3.15 836.59 2.95 835.44 2.76 834.42 2.49 833.39 2.22 832.58 1.88L832.58 1.88 832.58 2.69 825.75 2.69 825.75 1.71ZM862.32-14.65L862.32-21 870.25-21 870.25-14.65 862.32-14.65ZM863.78-12.01L863.78-12.94 872.01-12.94 872.01-19.63 872.99-19.63 872.99-12.01 863.78-12.01ZM862.32 0L862.32-6.35 870.25-6.35 870.25 0 862.32 0ZM863.78 1.71L872.01 1.71 872.01-4.98 872.99-4.98 872.99 2.64 863.78 2.64 863.78 1.71ZM895.47 0L895.47-3.91 902.03-3.91 902.03-26.49 895.44-26.49 895.44-30.4 931.36-30.4 931.36-21.61 925.86-21.61 925.86-26.49 907.77-26.49 907.77-16.63 922.57-16.63 922.57-13.57 907.77-13.57 907.77-3.91 917.88-3.91 917.88 0 895.47 0ZM927.33-18.97L927.33-19.9 933.11-19.9 933.11-29.17 934.09-29.17 934.09-18.97 927.33-18.97ZM909.53-18.09L909.53-24.78 924.89-24.78 924.89-23.85 910.53-23.85 910.53-18.09 909.53-18.09ZM896.91-23.85L896.91-24.78 901.01-24.78 901.01-23.85 896.91-23.85ZM909.53-5.37L909.53-11.87 924.35-11.87 924.35-15.41 925.33-15.41 925.33-10.94 910.51-10.94 910.51-5.37 909.53-5.37ZM896.91 1.71L919.64 1.71 919.64-2.54 920.61-2.54 920.61 2.64 896.91 2.64 896.91 1.71ZM939.85 0L939.85-3.66 945.22-3.66 945.22-19.41 939.85-19.41 939.85-23.56 950.47-23.56 950.47-19.48Q951.23-20.46 952.29-21.34 953.35-22.22 954.69-22.88 956.04-23.54 957.62-23.91 959.21-24.29 961.02-24.29L961.02-24.29Q961.55-24.29 962.36-24.26 963.16-24.22 963.9-24.1L963.9-24.1 963.9-19.31Q963.04-19.51 962.21-19.58 961.38-19.65 960.6-19.65L960.6-19.65Q958.65-19.65 956.9-19.03 955.16-18.41 953.79-17.22 952.42-16.04 951.54-14.33 950.66-12.62 950.47-10.42L950.47-10.42 950.47-3.66 959.26-3.66 959.26 0 939.85 0ZM952.18-5.13L952.18-8.23Q952.18-10.52 952.76-12.33 953.35-14.14 954.44-15.38 955.52-16.63 957.09-17.29 958.65-17.94 960.6-17.94L960.6-17.94Q961.02-17.94 961.65-17.88 962.29-17.82 962.98-17.7 963.68-17.58 964.39-17.4 965.09-17.21 965.66-16.97L965.66-16.97 965.66-22.73 966.63-22.73 966.63-15.75Q965.95-16.04 965.15-16.27 964.36-16.5 963.54-16.67 962.73-16.85 961.97-16.93 961.21-17.02 960.6-17.02L960.6-17.02Q958.82-17.02 957.44-16.43 956.06-15.84 955.11-14.75 954.16-13.65 953.66-12.06 953.16-10.47 953.16-8.47L953.16-8.47 953.16-5.13 952.18-5.13ZM941.31-16.77L941.31-17.7 944.2-17.7 944.2-16.77 941.31-16.77ZM941.31 1.71L961.02 1.71 961.02-2.29 961.99-2.29 961.99 2.64 941.31 2.64 941.31 1.71ZM971.15-11.33L971.15-11.33Q971.15-13.92 972.1-16.26 973.05-18.6 974.95-20.39 976.86-22.17 979.69-23.23 982.52-24.29 986.26-24.29L986.26-24.29Q989.77-24.29 992.53-23.35 995.29-22.41 997.22-20.63 999.15-18.85 1000.16-16.27 1001.18-13.7 1001.18-10.4L1001.18-10.4 976.49-10.4Q976.71-8.64 977.63-7.28 978.54-5.91 979.96-4.97 981.38-4.03 983.17-3.54 984.96-3.05 986.92-3.05L986.92-3.05Q988.5-3.05 990.15-3.31 991.8-3.56 993.26-4 994.73-4.44 995.88-4.99 997.02-5.54 997.64-6.13L997.64-6.13 998.56-6.13 1000.86-3.64Q998.34-1.49 994.74-0.38 991.14 0.73 986.8 0.73L986.8 0.73Q983.01 0.73 980.09-0.2 977.18-1.12 975.19-2.76 973.2-4.39 972.17-6.59 971.15-8.79 971.15-11.33ZM978.84-8.69L1002.84-8.69Q1002.88-9.06 1002.91-9.48 1002.93-9.91 1002.93-10.4L1002.93-10.4Q1002.93-12.48 1002.51-14.37 1002.08-16.26 1001.26-17.88 1000.44-19.51 999.25-20.85 998.05-22.19 996.54-23.14L996.54-23.14Q998.15-22.51 999.5-21.4 1000.86-20.29 1001.83-18.7 1002.81-17.11 1003.36-15.04 1003.91-12.96 1003.91-10.4L1003.91-10.4Q1003.91-10.21 1003.9-9.91 1003.89-9.62 1003.86-9.25 1003.84-8.89 1003.8-8.51 1003.76-8.13 1003.71-7.76L1003.71-7.76 980.64-7.76Q981.11-6.98 982.35-6.16 983.6-5.35 985.57-4.79L985.57-4.79Q984.35-4.79 983.29-5.08 982.23-5.37 981.36-5.88 980.5-6.4 979.85-7.12 979.2-7.84 978.84-8.69L978.84-8.69ZM976.64-13.45L995.54-13.45Q995.14-15.14 994.33-16.46 993.51-17.77 992.31-18.66 991.12-19.56 989.58-20.03 988.04-20.51 986.21-20.51L986.21-20.51Q984.23-20.51 982.61-19.98 980.98-19.46 979.76-18.52 978.54-17.58 977.75-16.28 976.96-14.99 976.64-13.45L976.64-13.45ZM979.98-14.5L978.86-14.5Q979.76-16.5 981.7-17.65 983.65-18.8 986.21-18.8L986.21-18.8Q987.26-18.8 988.25-18.63 989.24-18.46 990.08-18.1 990.92-17.75 991.56-17.24 992.19-16.72 992.56-16.06L992.56-16.06Q991.17-16.99 989.58-17.43 987.99-17.87 986.16-17.87L986.16-17.87Q984.04-17.87 982.43-16.99 980.81-16.11 979.98-14.5L979.98-14.5ZM974.1-1.07L974.1-1.07Q976.47 0.61 979.61 1.54 982.74 2.47 986.8 2.47L986.8 2.47Q990.75 2.47 994.2 1.56 997.66 0.66 1000.44-1.2L1000.44-1.2 1001.1-0.49Q997.95 1.64 994.47 2.51 990.99 3.39 987.19 3.39L987.19 3.39Q982.23 3.39 978.97 2.2 975.71 1 974.1-1.07ZM1009.28-11.33L1009.28-11.33Q1009.28-13.92 1010.23-16.26 1011.18-18.6 1013.09-20.39 1014.99-22.17 1017.82-23.23 1020.66-24.29 1024.39-24.29L1024.39-24.29Q1027.91-24.29 1030.66-23.35 1033.42-22.41 1035.35-20.63 1037.28-18.85 1038.29-16.27 1039.31-13.7 1039.31-10.4L1039.31-10.4 1014.62-10.4Q1014.84-8.64 1015.76-7.28 1016.68-5.91 1018.09-4.97 1019.51-4.03 1021.3-3.54 1023.1-3.05 1025.05-3.05L1025.05-3.05Q1026.64-3.05 1028.28-3.31 1029.93-3.56 1031.4-4 1032.86-4.44 1034.01-4.99 1035.16-5.54 1035.77-6.13L1035.77-6.13 1036.7-6.13 1038.99-3.64Q1036.48-1.49 1032.87-0.38 1029.27 0.73 1024.93 0.73L1024.93 0.73Q1021.14 0.73 1018.23-0.2 1015.31-1.12 1013.32-2.76 1011.33-4.39 1010.3-6.59 1009.28-8.79 1009.28-11.33ZM1016.97-8.69L1040.97-8.69Q1041.02-9.06 1041.04-9.48 1041.07-9.91 1041.07-10.4L1041.07-10.4Q1041.07-12.48 1040.64-14.37 1040.21-16.26 1039.39-17.88 1038.57-19.51 1037.38-20.85 1036.18-22.19 1034.67-23.14L1034.67-23.14Q1036.28-22.51 1037.64-21.4 1038.99-20.29 1039.97-18.7 1040.94-17.11 1041.49-15.04 1042.04-12.96 1042.04-10.4L1042.04-10.4Q1042.04-10.21 1042.03-9.91 1042.02-9.62 1041.99-9.25 1041.97-8.89 1041.93-8.51 1041.9-8.13 1041.85-7.76L1041.85-7.76 1018.78-7.76Q1019.24-6.98 1020.48-6.16 1021.73-5.35 1023.71-4.79L1023.71-4.79Q1022.49-4.79 1021.42-5.08 1020.36-5.37 1019.5-5.88 1018.63-6.4 1017.98-7.12 1017.33-7.84 1016.97-8.69L1016.97-8.69ZM1014.77-13.45L1033.67-13.45Q1033.28-15.14 1032.46-16.46 1031.64-17.77 1030.45-18.66 1029.25-19.56 1027.71-20.03 1026.17-20.51 1024.34-20.51L1024.34-20.51Q1022.36-20.51 1020.74-19.98 1019.12-19.46 1017.9-18.52 1016.68-17.58 1015.88-16.28 1015.09-14.99 1014.77-13.45L1014.77-13.45ZM1018.12-14.5L1016.99-14.5Q1017.9-16.5 1019.84-17.65 1021.78-18.8 1024.34-18.8L1024.34-18.8Q1025.39-18.8 1026.38-18.63 1027.37-18.46 1028.21-18.1 1029.05-17.75 1029.69-17.24 1030.32-16.72 1030.69-16.06L1030.69-16.06Q1029.3-16.99 1027.71-17.43 1026.12-17.87 1024.29-17.87L1024.29-17.87Q1022.17-17.87 1020.56-16.99 1018.95-16.11 1018.12-14.5L1018.12-14.5ZM1012.23-1.07L1012.23-1.07Q1014.6 0.61 1017.74 1.54 1020.87 2.47 1024.93 2.47L1024.93 2.47Q1028.88 2.47 1032.34 1.56 1035.79 0.66 1038.57-1.2L1038.57-1.2 1039.23-0.49Q1036.08 1.64 1032.61 2.51 1029.13 3.39 1025.32 3.39L1025.32 3.39Q1020.36 3.39 1017.1 2.2 1013.84 1 1012.23-1.07ZM1072.11 0L1072.11-3.91 1080.42-3.91 1080.42-26.49 1068.77-26.49 1068.77-20.14 1063.28-20.14 1063.28-30.4 1103.05-30.4 1103.05-20.14 1097.55-20.14 1097.55-26.49 1085.91-26.49 1085.91-3.91 1094.21-3.91 1094.21 0 1072.11 0ZM1099.02-17.5L1099.02-18.43 1104.81-18.43 1104.81-29.17 1105.78-29.17 1105.78-17.5 1099.02-17.5ZM1087.67-5.37L1087.67-24.78 1096.53-24.78 1096.53-23.85 1088.64-23.85 1088.64-5.37 1087.67-5.37ZM1064.74-17.5L1064.74-18.43 1070.53-18.43 1070.53-24.78 1079.39-24.78 1079.39-23.85 1071.5-23.85 1071.5-17.5 1064.74-17.5ZM1073.58 1.71L1095.97 1.71 1095.97-2.54 1096.94-2.54 1096.94 2.64 1073.58 2.64 1073.58 1.71ZM1113.71-5.47L1113.71-5.47Q1113.23-6.71 1112.99-8.18 1112.76-9.64 1112.76-11.4L1112.76-11.4 1112.76-19.41 1108.61-19.41 1108.61-23.56 1118.01-23.56 1118.01-13.48Q1118.01-11.5 1118.19-9.95 1118.38-8.4 1118.72-7.52L1118.72-7.52Q1119.16-6.4 1119.87-5.62 1120.57-4.83 1121.47-4.35 1122.36-3.86 1123.39-3.64 1124.43-3.42 1125.55-3.42L1125.55-3.42Q1126.75-3.42 1128.03-3.86 1129.31-4.3 1130.51-5.08 1131.71-5.86 1132.74-6.93 1133.78-8.01 1134.49-9.25L1134.49-9.25 1134.49-19.41 1129.12-19.41 1129.12-23.56 1139.74-23.56 1139.74-3.66 1143.89-3.66 1143.89 0 1134.49 0 1134.49-3.71Q1133.71-2.76 1132.6-1.95 1131.49-1.15 1130.13-0.55 1128.78 0.05 1127.21 0.39 1125.65 0.73 1123.97 0.73L1123.97 0.73Q1120.33 0.73 1117.66-0.79 1114.98-2.32 1113.71-5.47ZM1141.45-5.13L1141.45-22.31 1142.42-22.31 1142.42-5.13 1141.45-5.13ZM1119.77-12.01L1119.77-22.31 1120.75-22.31 1120.75-12.28Q1120.75-10.38 1121.11-9.11 1121.48-7.84 1122.09-7.03 1122.7-6.23 1123.48-5.79 1124.26-5.35 1125.09-5.1L1125.09-5.1Q1122.53-5.13 1121.15-6.8 1119.77-8.47 1119.77-12.01L1119.77-12.01ZM1130.58-16.77L1130.58-17.7 1133.46-17.7 1133.46-16.77 1130.58-16.77ZM1110.08-16.77L1110.08-17.7 1111.74-17.7 1111.74-16.77 1110.08-16.77ZM1135.96 1.71L1145.65 1.71 1145.65-2.29 1146.62-2.29 1146.62 2.64 1135.96 2.64 1135.96 1.71ZM1113.98-1.64L1113.98-1.64Q1115.89 0.42 1118.28 1.43 1120.67 2.44 1123.99 2.44L1123.99 2.44Q1126.95 2.44 1129.28 1.67 1131.61 0.9 1133.51-0.42L1133.51-0.42 1133.51 0.71Q1131.37 2.1 1129.05 2.73 1126.73 3.37 1124.02 3.37L1124.02 3.37Q1120.33 3.37 1117.74 2.09 1115.15 0.81 1113.98-1.64ZM1156.36-8.74L1156.36-19.41 1150.99-19.41 1150.99-23.56 1156.36-23.56 1156.36-28.49 1161.61-30.69 1161.61-23.56 1173.75-23.56 1173.75-19.41 1161.61-19.41 1161.61-7.76Q1161.61-5.93 1162.76-5.04 1163.91-4.15 1165.88-4.15L1165.88-4.15 1172.77-4.15 1172.77 0 1165.88 0Q1163.91 0 1162.17-0.43 1160.44-0.85 1159.15-1.87 1157.85-2.88 1157.11-4.55 1156.36-6.23 1156.36-8.74L1156.36-8.74ZM1163.37-25.02L1163.37-29.35 1164.35-29.79 1164.35-25.02 1163.37-25.02ZM1163.32-6.76L1163.32-17.97 1175.5-17.97 1175.5-22.46 1176.48-22.46 1176.48-17.04 1164.3-17.04 1164.3-5.79Q1163.47-6.01 1163.32-6.76L1163.32-6.76ZM1152.46-16.77L1152.46-17.7 1155.39-17.7 1155.39-16.77 1152.46-16.77ZM1156.22-2.1L1156.22-2.1Q1157-1 1157.96-0.27 1158.93 0.46 1160.12 0.9 1161.32 1.34 1162.73 1.53 1164.15 1.71 1165.84 1.71L1165.84 1.71 1174.53 1.71 1174.53-3.05 1175.5-3.05 1175.5 2.64 1165.71 2.64Q1163.83 2.64 1162.3 2.39 1160.76 2.15 1159.57 1.6 1158.39 1.05 1157.55 0.13 1156.7-0.78 1156.22-2.1ZM1181.7-11.4L1181.7-11.4Q1181.7-14.06 1182.85-16.42 1184-18.77 1186.06-20.52 1188.12-22.27 1191-23.28 1193.88-24.29 1197.33-24.29L1197.33-24.29Q1200.94-24.29 1203.78-23.33 1206.63-22.36 1208.59-20.65 1210.56-18.95 1211.6-16.6 1212.63-14.26 1212.63-11.5L1212.63-11.5Q1212.63-8.84 1211.5-6.59 1210.36-4.35 1208.28-2.72 1206.19-1.1 1203.27-0.18 1200.35 0.73 1196.77 0.73L1196.77 0.73Q1193.37 0.73 1190.6-0.28 1187.83-1.29 1185.85-2.98 1183.87-4.66 1182.79-6.85 1181.7-9.03 1181.7-11.4ZM1185.54-1.12L1185.54-1.12Q1187.9 0.59 1190.77 1.51 1193.64 2.44 1197.25 2.44L1197.25 2.44Q1200.62 2.44 1203.72 1.53 1206.82 0.61 1209.19-1.17 1211.56-2.95 1212.98-5.55 1214.39-8.15 1214.39-11.5L1214.39-11.5Q1214.39-13.13 1213.94-14.81 1213.49-16.48 1212.67-18.02 1211.85-19.56 1210.68-20.89 1209.51-22.22 1208.07-23.14L1208.07-23.14Q1209.71-22.41 1211.06-21.22 1212.41-20.02 1213.37-18.49 1214.32-16.97 1214.84-15.19 1215.37-13.4 1215.37-11.5L1215.37-11.5Q1215.37-9.11 1214.69-7.07 1214-5.03 1212.79-3.38 1211.58-1.73 1209.91-0.46 1208.24 0.81 1206.24 1.65 1204.24 2.49 1201.98 2.93 1199.72 3.37 1197.38 3.37L1197.38 3.37Q1195.42 3.37 1193.64 3.06 1191.86 2.76 1190.33 2.19 1188.81 1.61 1187.59 0.78 1186.37-0.05 1185.54-1.12ZM1187.12-11.5L1187.12-11.5Q1187.12-9.62 1187.84-8.07 1188.56-6.52 1189.88-5.41 1191.2-4.3 1193.04-3.69 1194.89-3.08 1197.13-3.08L1197.13-3.08Q1199.4-3.08 1201.26-3.7 1203.11-4.32 1204.46-5.43 1205.8-6.54 1206.53-8.09 1207.26-9.64 1207.26-11.5L1207.26-11.5Q1207.26-13.33 1206.53-14.95 1205.8-16.58 1204.48-17.81 1203.16-19.04 1201.32-19.76 1199.48-20.48 1197.25-20.48L1197.25-20.48Q1194.93-20.48 1193.07-19.79 1191.2-19.09 1189.88-17.88 1188.56-16.67 1187.84-15.04 1187.12-13.4 1187.12-11.5ZM1188.83-11.4L1188.83-11.4Q1188.83-12.94 1189.44-14.29 1190.05-15.65 1191.16-16.64 1192.27-17.63 1193.82-18.2 1195.37-18.77 1197.25-18.77L1197.25-18.77Q1198.45-18.77 1199.57-18.52 1200.7-18.26 1201.65-17.77 1202.6-17.29 1203.33-16.59 1204.07-15.89 1204.5-15.01L1204.5-15.01Q1202.89-16.48 1201.15-17.16 1199.4-17.85 1197.21-17.85L1197.21-17.85Q1195.62-17.85 1194.28-17.33 1192.93-16.82 1191.93-15.94 1190.93-15.06 1190.37-13.89 1189.81-12.72 1189.81-11.4L1189.81-11.4Q1189.81-10.3 1190.08-9.35 1190.34-8.4 1190.99-7.58 1191.64-6.76 1192.71-6.1 1193.79-5.44 1195.4-4.93L1195.4-4.93Q1193.93-5.03 1192.73-5.55 1191.52-6.08 1190.65-6.93 1189.78-7.79 1189.31-8.94 1188.83-10.08 1188.83-11.4ZM1221.71 0L1221.71-3.66 1227.09-3.66 1227.09-19.41 1221.71-19.41 1221.71-23.56 1232.33-23.56 1232.33-19.48Q1233.09-20.46 1234.15-21.34 1235.22-22.22 1236.56-22.88 1237.9-23.54 1239.49-23.91 1241.07-24.29 1242.88-24.29L1242.88-24.29Q1243.42-24.29 1244.22-24.26 1245.03-24.22 1245.76-24.1L1245.76-24.1 1245.76-19.31Q1244.91-19.51 1244.08-19.58 1243.25-19.65 1242.47-19.65L1242.47-19.65Q1240.51-19.65 1238.77-19.03 1237.02-18.41 1235.65-17.22 1234.29-16.04 1233.41-14.33 1232.53-12.62 1232.33-10.42L1232.33-10.42 1232.33-3.66 1241.12-3.66 1241.12 0 1221.71 0ZM1234.04-5.13L1234.04-8.23Q1234.04-10.52 1234.63-12.33 1235.22-14.14 1236.3-15.38 1237.39-16.63 1238.95-17.29 1240.51-17.94 1242.47-17.94L1242.47-17.94Q1242.88-17.94 1243.52-17.88 1244.15-17.82 1244.85-17.7 1245.54-17.58 1246.25-17.4 1246.96-17.21 1247.52-16.97L1247.52-16.97 1247.52-22.73 1248.5-22.73 1248.5-15.75Q1247.81-16.04 1247.02-16.27 1246.23-16.5 1245.41-16.67 1244.59-16.85 1243.83-16.93 1243.08-17.02 1242.47-17.02L1242.47-17.02Q1240.68-17.02 1239.3-16.43 1237.93-15.84 1236.97-14.75 1236.02-13.65 1235.52-12.06 1235.02-10.47 1235.02-8.47L1235.02-8.47 1235.02-5.13 1234.04-5.13ZM1223.18-16.77L1223.18-17.7 1226.06-17.7 1226.06-16.77 1223.18-16.77ZM1223.18 1.71L1242.88 1.71 1242.88-2.29 1243.86-2.29 1243.86 2.64 1223.18 2.64 1223.18 1.71ZM1258.38-29.64L1258.38-34.52 1264.36-34.52 1264.36-29.64 1258.38-29.64ZM1259.85-27L1259.85-27.93 1266.12-27.93 1266.12-33.15 1267.1-33.15 1267.1-27 1259.85-27ZM1253.25 0L1253.25-3.66 1259.85-3.66 1259.11-19.41 1253.25-19.41 1253.25-23.56 1264.36-23.56 1264.36-3.66 1269.98-3.66 1269.98 0 1253.25 0ZM1266.07-5.13L1266.07-22.31 1267.05-22.31 1267.05-5.13 1266.07-5.13ZM1254.72-16.77L1254.72-17.7 1258.09-17.7 1258.09-16.77 1254.72-16.77ZM1254.72 1.71L1271.74 1.71 1271.74-2.29 1272.71-2.29 1272.71 2.64 1254.72 2.64 1254.72 1.71ZM1276.13-11.69L1276.13-11.69Q1276.13-13.96 1277.08-16.21 1278.03-18.46 1279.9-20.25 1281.77-22.05 1284.53-23.17 1287.29-24.29 1290.87-24.29L1290.87-24.29Q1292.02-24.29 1293.33-24.12 1294.63-23.95 1295.94-23.56 1297.25-23.17 1298.49-22.52 1299.74-21.88 1300.76-20.95L1300.76-20.95 1300.76-23.56 1311.26-23.56 1311.26-19.41 1305.89-19.41 1305.89-3.66 1311.26-3.66 1311.26 0 1300.76 0 1300.76-3.17Q1299.81-2.22 1298.6-1.49 1297.39-0.76 1296.04-0.27 1294.68 0.22 1293.23 0.48 1291.78 0.73 1290.34 0.73L1290.34 0.73Q1286.82 0.73 1284.16-0.27 1281.5-1.27 1279.72-2.97 1277.93-4.66 1277.03-6.92 1276.13-9.18 1276.13-11.69ZM1307.65-5.13L1307.65-17.7 1313.02-17.7 1313.02-21.7 1313.99-21.7 1313.99-16.77 1308.62-16.77 1308.62-5.13 1307.65-5.13ZM1281.43-11.89L1281.43-11.89Q1281.43-9.86 1282.15-8.23 1282.87-6.59 1284.11-5.44 1285.36-4.3 1287.07-3.66 1288.77-3.03 1290.75-3.03L1290.75-3.03Q1291.9-3.03 1293.08-3.26 1294.27-3.49 1295.38-3.97 1296.49-4.44 1297.48-5.16 1298.47-5.88 1299.19-6.87 1299.91-7.86 1300.33-9.13 1300.76-10.4 1300.76-11.96L1300.76-11.96Q1300.76-13.7 1299.96-15.25 1299.15-16.8 1297.8-17.97 1296.44-19.14 1294.63-19.82 1292.83-20.51 1290.83-20.51L1290.83-20.51Q1288.82-20.51 1287.1-19.9 1285.38-19.29 1284.12-18.16 1282.87-17.04 1282.15-15.44 1281.43-13.84 1281.43-11.89ZM1283.11-11.77L1283.11-11.77Q1283.11-13.31 1283.68-14.59 1284.26-15.87 1285.28-16.81 1286.31-17.75 1287.72-18.27 1289.14-18.8 1290.83-18.8L1290.83-18.8Q1292.09-18.8 1293.12-18.52 1294.15-18.24 1294.9-17.83 1295.66-17.43 1296.15-17 1296.64-16.58 1296.83-16.26L1296.83-16.26Q1295.51-16.99 1294.12-17.43 1292.73-17.87 1290.83-17.87L1290.83-17.87Q1289.29-17.87 1288.05-17.37 1286.82-16.87 1285.94-16.02 1285.06-15.16 1284.59-14.04 1284.11-12.92 1284.11-11.67L1284.11-11.67Q1284.11-10.5 1284.38-9.47 1284.65-8.45 1285.25-7.58 1285.84-6.71 1286.81-5.99 1287.77-5.27 1289.14-4.74L1289.14-4.74Q1287.6-5 1286.47-5.65 1285.33-6.3 1284.59-7.23 1283.84-8.15 1283.48-9.31 1283.11-10.47 1283.11-11.77ZM1302.23 1.71L1313.02 1.71 1313.02-2.29 1313.99-2.29 1313.99 2.64 1302.23 2.64 1302.23 1.71ZM1279.28-1.05L1279.28-1.05Q1280.28-0.24 1281.55 0.4 1282.82 1.05 1284.26 1.5 1285.7 1.95 1287.25 2.2 1288.8 2.44 1290.36 2.44L1290.36 2.44Q1293.07 2.44 1295.43 1.77 1297.78 1.1 1299.61-0.1L1299.61-0.1 1299.61 1.03Q1297.78 2.12 1295.38 2.75 1292.97 3.37 1290.39 3.37L1290.39 3.37Q1288.6 3.37 1286.89 3.09 1285.19 2.81 1283.72 2.25 1282.26 1.68 1281.11 0.85 1279.96 0.02 1279.28-1.05ZM1319.97 0L1319.97-3.66 1325.34-3.66 1325.34-30.4 1319.97-30.4 1319.97-34.06 1330.59-34.06 1330.59-3.66 1335.96-3.66 1335.96 0 1319.97 0ZM1332.3-5.13L1332.3-32.81 1333.28-32.81 1333.28-5.13 1332.3-5.13ZM1321.44-27.76L1321.44-28.69 1324.32-28.69 1324.32-27.76 1321.44-27.76ZM1321.44 1.71L1337.72 1.71 1337.72-2.29 1338.7-2.29 1338.7 2.64 1321.44 2.64 1321.44 1.71ZM1344.26 0L1344.26-6.71 1349.29-6.71Q1349.95-5.71 1351.17-4.96 1352.39-4.2 1353.97-3.71 1355.54-3.22 1357.42-2.98 1359.3-2.73 1361.28-2.73L1361.28-2.73Q1362.92-2.73 1364.06-2.98 1365.21-3.22 1365.92-3.66 1366.63-4.1 1366.94-4.69 1367.26-5.27 1367.26-5.98L1367.26-5.98Q1367.26-7.47 1364.88-8.53 1362.5-9.59 1357.35-10.16L1357.35-10.16Q1353.93-10.52 1351.64-11.17 1349.34-11.82 1347.94-12.74 1346.53-13.67 1345.94-14.87 1345.34-16.06 1345.34-17.5L1345.34-17.5Q1345.34-18.75 1346.12-19.97 1346.9-21.19 1348.5-22.16 1350.1-23.12 1352.5-23.71 1354.91-24.29 1358.15-24.29L1358.15-24.29Q1359.2-24.29 1360.3-24.15 1361.4-24 1362.45-23.72 1363.5-23.44 1364.45-23.05 1365.41-22.66 1366.16-22.17L1366.16-22.17 1366.16-23.54 1371.41-23.54 1371.41-16.94 1366.16-16.94Q1365.89-17.7 1365.04-18.38 1364.18-19.07 1363.01-19.58 1361.84-20.09 1360.52-20.4 1359.2-20.7 1358.03-20.7L1358.03-20.7Q1356.49-20.7 1355.13-20.48 1353.76-20.26 1352.76-19.86 1351.76-19.46 1351.17-18.9 1350.59-18.33 1350.59-17.65L1350.59-17.65Q1350.59-17.02 1351.04-16.5 1351.49-15.99 1352.55-15.55 1353.61-15.11 1355.38-14.73 1357.15-14.36 1359.79-14.04L1359.79-14.04Q1363.31-13.6 1365.72-12.92 1368.14-12.23 1369.65-11.24 1371.17-10.25 1371.84-8.94 1372.51-7.62 1372.51-5.91L1372.51-5.91Q1372.51-4.66 1371.75-3.48 1371-2.29 1369.54-1.35 1368.09-0.42 1365.98 0.16 1363.87 0.73 1361.13 0.73L1361.13 0.73Q1359.38 0.73 1357.84 0.6 1356.3 0.46 1354.88 0.15 1353.47-0.17 1352.15-0.66 1350.83-1.15 1349.51-1.86L1349.51-1.86 1349.51 0 1344.26 0ZM1367.36-14.31L1367.36-15.23 1373.17-15.23 1373.17-22.51 1374.15-22.51 1374.15-14.31 1367.36-14.31ZM1352.37-17.65L1352.37-17.65Q1352.44-17.97 1352.95-18.24 1353.47-18.51 1354.26-18.71 1355.05-18.92 1356.02-19.04 1356.98-19.17 1357.96-19.17L1357.96-19.17Q1358.79-19.17 1359.68-19.04 1360.57-18.92 1361.36-18.7 1362.16-18.48 1362.81-18.15 1363.45-17.82 1363.82-17.41L1363.82-17.41Q1363.26-17.65 1362.48-17.81 1361.69-17.97 1360.88-18.07 1360.06-18.16 1359.28-18.21 1358.5-18.26 1357.96-18.26L1357.96-18.26Q1355.98-18.26 1354.53-18.07 1353.08-17.87 1352.37-17.65ZM1345.68-12.82L1345.68-12.82Q1346.36-11.94 1347.31-11.25 1348.27-10.57 1349.61-10.03 1350.95-9.5 1352.73-9.12 1354.52-8.74 1356.84-8.47L1356.84-8.47Q1358.96-8.23 1360.52-7.95 1362.09-7.67 1363.13-7.32 1364.18-6.98 1364.77-6.56 1365.36-6.13 1365.53-5.59L1365.53-5.59Q1365.01-5.93 1364.36-6.19 1363.7-6.45 1362.67-6.67 1361.65-6.88 1360.14-7.1 1358.64-7.32 1356.42-7.59L1356.42-7.59Q1351.83-8.13 1349.17-9.34 1346.51-10.55 1345.68-12.82ZM1345.46 1.71L1351.27 1.71 1351.27 0.68Q1351.95 1 1353 1.31 1354.05 1.61 1355.36 1.87 1356.67 2.12 1358.13 2.28 1359.59 2.44 1361.11 2.44L1361.11 2.44Q1364.14 2.44 1366.58 1.77 1369.02 1.1 1370.73-0.04 1372.44-1.17 1373.35-2.67 1374.27-4.17 1374.27-5.83L1374.27-5.83Q1374.27-6.49 1374.19-7.06 1374.12-7.62 1373.94-8.13 1373.76-8.64 1373.45-9.16 1373.14-9.67 1372.68-10.23L1372.68-10.23Q1375.24-8.72 1375.24-5.83L1375.24-5.83Q1375.24-3.88 1374.24-2.2 1373.24-0.51 1371.4 0.72 1369.56 1.95 1366.94 2.66 1364.33 3.37 1361.08 3.37L1361.08 3.37Q1359.89 3.37 1358.67 3.26 1357.45 3.15 1356.3 2.95 1355.15 2.76 1354.13 2.49 1353.1 2.22 1352.3 1.88L1352.3 1.88 1352.3 2.69 1345.46 2.69 1345.46 1.71Z" opacity="1" transform="matrix(1,0,0,1,0,0)" fill="#fbfbf8" class="slogan-text-1" data-fill-palette-color="secondary" id="text-1"></path></svg></g></svg></g></svg></g></svg></g></svg></g><defs></defs></svg><rect width="395.52" height="46.837586196368214" fill="none" stroke="none" visibility="hidden"></rect></g></svg></g></svg>